<svg xmlns="http://www.w3.org/2000/svg" viewBox="0 0 66 50"><defs><style>.cls-1{fill:#c6c6c6;}</style></defs><title>アセット 860</title><g id="レイヤー_2" data-name="レイヤー 2"><g id="視聴"><g id="王冠2"><rect x="0.03" width="65.97" height="50"/><path class="cls-1" d="M33,10.05C29,15.78,25,21.36,21.11,26.94L6.83,18c.11.46.13.67.2.85q4.22,11.9,8.42,23.81H50.5c2.32-6.68,4.7-13.33,7.06-20,.53-1.48,1-3,1.67-4.75L44.84,27C40.9,21.33,37,15.78,33,10.05Z"/><path class="cls-1" d="M33,7.6a3.48,3.48,0,0,0,3.57-3.48,3.54,3.54,0,0,0-7.08-.06A3.49,3.49,0,0,0,33,7.6Z"/><path class="cls-1" d="M62.43,10.36a3.55,3.55,0,1,0,0,7.09,3.55,3.55,0,0,0,0-7.09Z"/><path class="cls-1" d="M3.55,10.37a3.54,3.54,0,0,0-.07,7.08,3.54,3.54,0,1,0,.07-7.08Z"/><rect class="cls-1" x="15.71" y="46.12" width="34.67" height="3.77"/></g></g></g></svg>