<svg xmlns="http://www.w3.org/2000/svg" viewBox="0 0 66 50"><defs><style>.cls-1{fill:#ffce00;}</style></defs><title>アセット 863</title><g id="レイヤー_2" data-name="レイヤー 2"><g id="視聴"><g id="王冠1"><rect width="65.97" height="50"/><path class="cls-1" d="M33,10.05c-4,5.73-7.94,11.31-11.87,16.89L6.86,18c.1.46.13.67.19.85,2.81,7.93,5.64,15.87,8.43,23.81H50.54c2.32-6.68,4.7-13.33,7.05-20,.53-1.48,1-3,1.67-4.75L44.88,27Z"/><path class="cls-1" d="M33,7.6a3.48,3.48,0,0,0,3.57-3.48,3.54,3.54,0,0,0-7.08-.06A3.48,3.48,0,0,0,33,7.6Z"/><path class="cls-1" d="M62.46,10.36a3.55,3.55,0,1,0,0,7.09,3.55,3.55,0,0,0,0-7.09Z"/><path class="cls-1" d="M3.58,10.37a3.54,3.54,0,0,0-.07,7.08,3.54,3.54,0,1,0,.07-7.08Z"/><rect class="cls-1" x="15.74" y="46.12" width="34.67" height="3.77"/></g></g></g></svg>