<svg xmlns="http://www.w3.org/2000/svg" viewBox="0 0 78.92 78.92"><defs><style>.cls-1{fill:#ededed;}</style></defs><title>アセット 679</title><g id="レイヤー_2" data-name="レイヤー 2"><g id="視聴"><g id="_0" data-name="0"><path class="cls-1" d="M71.18,4a3.73,3.73,0,0,1,3.74,3.73V71.18a3.73,3.73,0,0,1-3.74,3.74H7.73A3.73,3.73,0,0,1,4,71.18V7.73A3.73,3.73,0,0,1,7.73,4H71.18m0-4H7.73A7.74,7.74,0,0,0,0,7.73V71.18a7.74,7.74,0,0,0,7.73,7.74H71.18a7.75,7.75,0,0,0,7.74-7.74V7.73A7.74,7.74,0,0,0,71.18,0Z"/></g></g></g></svg>