<svg xmlns="http://www.w3.org/2000/svg" viewBox="0 0 150 70"><defs><style>.cls-1{fill:#ededed;}</style></defs><title>アセット 784</title><g id="レイヤー_2" data-name="レイヤー 2"><g id="視聴_" data-name="視聴★"><g id="決定_" data-name="決定■"><path class="cls-1" d="M142.85,4.1A3.21,3.21,0,0,1,146,7.35v55.3a3.21,3.21,0,0,1-3.16,3.25H7.15A3.21,3.21,0,0,1,4,62.65V7.35A3.21,3.21,0,0,1,7.15,4.1h135.7m0-4.1H7.15A7.26,7.26,0,0,0,0,7.35v55.3A7.26,7.26,0,0,0,7.15,70h135.7A7.26,7.26,0,0,0,150,62.65V7.35A7.26,7.26,0,0,0,142.85,0Z"/></g></g></g></svg>