<svg xmlns="http://www.w3.org/2000/svg" xmlns:xlink="http://www.w3.org/1999/xlink" viewBox="0 0 233 62"><defs><style>.cls-1{fill:url(#名称未設定グラデーション_8);}</style><linearGradient id="名称未設定グラデーション_8" y1="31" x2="233" y2="31" gradientUnits="userSpaceOnUse"><stop offset="0.01" stop-color="#cce700"/><stop offset="1" stop-color="#d4fd9e"/></linearGradient></defs><title>アセット 928</title><g id="レイヤー_2" data-name="レイヤー 2"><g id="ボタン"><path id="ボタン_セレクト" class="cls-1" d="M202.21,0H30.79a31,31,0,0,0,0,62H202.21a31,31,0,0,0,0-62Zm0,59.32H30.79a28.32,28.32,0,0,1,0-56.64H202.21a28.32,28.32,0,0,1,0,56.64ZM224.37,31a22.18,22.18,0,0,1-22.16,22.16H30.79a22.16,22.16,0,0,1,0-44.32H202.21A22.18,22.18,0,0,1,224.37,31Z"/></g></g></svg>