<svg xmlns="http://www.w3.org/2000/svg" viewBox="0 0 81 81"><defs><style>.cls-1{fill:#d33637;}.cls-2{fill:#cce700;}</style></defs><title>アセット 796</title><g id="レイヤー_2" data-name="レイヤー 2"><g id="視聴_" data-name="視聴★"><g id="赤フォーカス"><rect class="cls-1" x="4.15" y="4" width="73" height="73" rx="3.84" ry="3.84"/><path class="cls-2" d="M73.16,4A3.84,3.84,0,0,1,77,7.84V73.16A3.84,3.84,0,0,1,73.16,77H7.84A3.84,3.84,0,0,1,4,73.16V7.84A3.84,3.84,0,0,1,7.84,4H73.16m0-4H7.84A7.85,7.85,0,0,0,0,7.84V73.16A7.85,7.85,0,0,0,7.84,81H73.16A7.85,7.85,0,0,0,81,73.16V7.84A7.85,7.85,0,0,0,73.16,0Z"/><path d="M72.4,8.6V72.4H8.6V8.6H72.4M73.16,4H7.84A3.84,3.84,0,0,0,4,7.84V73.16A3.84,3.84,0,0,0,7.84,77H73.16A3.84,3.84,0,0,0,77,73.16V7.84A3.84,3.84,0,0,0,73.16,4Z"/></g></g></g></svg>