<svg xmlns="http://www.w3.org/2000/svg" viewBox="0 0 60.44 185.62"><defs><style>.cls-1{fill:#231815;}.cls-2{fill:#ededed;}.cls-3{fill:#666;}.cls-4{opacity:0.15;}.cls-5{fill:#fff;}.cls-6{fill:#313131;}</style></defs><title>アセット 802</title><g id="レイヤー_2" data-name="レイヤー 2"><g id="設定_buhin_" data-name="設定_buhin★"><g id="リモコン"><rect x="1.13" y="1.13" width="58.17" height="183.36" rx="4.59" ry="4.59"/><path class="cls-1" d="M54.71,184.68h-49A4.79,4.79,0,0,1,.94,179.9V5.72A4.79,4.79,0,0,1,5.72.94h49a4.79,4.79,0,0,1,4.78,4.78V179.9A4.79,4.79,0,0,1,54.71,184.68ZM5.72,1.32a4.41,4.41,0,0,0-4.4,4.4V179.9a4.41,4.41,0,0,0,4.4,4.4h49a4.41,4.41,0,0,0,4.41-4.4V5.72a4.42,4.42,0,0,0-4.41-4.4Z"/><path class="cls-2" d="M54.71,185.62h-49A5.73,5.73,0,0,1,0,179.9V5.72A5.73,5.73,0,0,1,5.72,0h49a5.73,5.73,0,0,1,5.73,5.72V179.9A5.73,5.73,0,0,1,54.71,185.62ZM5.72,2.26A3.47,3.47,0,0,0,2.26,5.72V179.9a3.47,3.47,0,0,0,3.46,3.46h49a3.47,3.47,0,0,0,3.46-3.46V5.72a3.47,3.47,0,0,0-3.46-3.46Z"/><circle class="cls-3" cx="30.22" cy="61.89" r="21.15"/><circle class="cls-2" cx="30.22" cy="61.89" r="9.07"/><path class="cls-2" d="M30.22,53.58a8.31,8.31,0,1,1-8.31,8.31,8.32,8.32,0,0,1,8.31-8.31m0-.75a9.07,9.07,0,1,0,9.06,9.06,9.06,9.06,0,0,0-9.06-9.06Z"/><g id="ボタン" class="cls-4"><rect class="cls-5" x="7.55" y="13.35" width="11.33" height="11.33" rx="1.54" ry="1.54"/><rect class="cls-5" x="24.55" y="13.35" width="11.33" height="11.33" rx="1.54" ry="1.54"/><rect class="cls-5" x="41.55" y="13.35" width="11.33" height="11.33" rx="1.54" ry="1.54"/></g><rect class="cls-6" x="6.07" y="96.74" width="10" height="10"/><rect class="cls-6" x="18.84" y="96.74" width="10" height="10"/><rect class="cls-6" x="44.37" y="96.74" width="10" height="10"/><rect class="cls-6" x="31.6" y="96.74" width="10" height="10"/></g></g></g></svg>