<svg xmlns="http://www.w3.org/2000/svg" viewBox="0 0 43.29 31.04"><defs><style>.cls-1{fill:#fff;}.cls-2{fill:#ededed;}</style></defs><title>アセット 748</title><g id="レイヤー_2" data-name="レイヤー 2"><g id="チャンネル番号のコピー"><g id="channel_12"><path class="cls-1" d="M40.76,31H2.53A2.52,2.52,0,0,1,0,28.52v-26A2.53,2.53,0,0,1,2.53,0H40.76a2.53,2.53,0,0,1,2.53,2.53v26A2.52,2.52,0,0,1,40.76,31ZM2.53,2A.53.53,0,0,0,2,2.53v26a.52.52,0,0,0,.53.52H40.76a.52.52,0,0,0,.53-.52v-26A.53.53,0,0,0,40.76,2Z"/><path class="cls-2" d="M17.16,24.19H13.87V11.78a11.29,11.29,0,0,1-4.25,2.5v-3a9.41,9.41,0,0,0,2.8-1.6,6,6,0,0,0,2.07-2.75h2.67Z"/><path class="cls-2" d="M32.61,21.14v3.05H21.06a7.93,7.93,0,0,1,1.13-3.28,21.61,21.61,0,0,1,3.7-4.12A22.35,22.35,0,0,0,28.62,14a3.59,3.59,0,0,0,.68-2,2.3,2.3,0,0,0-.59-1.69,2.51,2.51,0,0,0-3.27,0,3.14,3.14,0,0,0-.71,2.06L21.45,12a5.4,5.4,0,0,1,1.84-3.9,6.17,6.17,0,0,1,3.87-1.19,5.55,5.55,0,0,1,4,1.38,4.49,4.49,0,0,1,1.46,3.41,5.91,5.91,0,0,1-.42,2.21,9.17,9.17,0,0,1-1.32,2.19,20.44,20.44,0,0,1-2.15,2.19c-1,1-1.7,1.59-2,1.9a5.2,5.2,0,0,0-.67.92Z"/></g></g></g></svg>