<svg xmlns="http://www.w3.org/2000/svg" viewBox="0 0 43.29 31.04"><defs><style>.cls-1{fill:#fff;}.cls-2{fill:#ededed;}</style></defs><title>アセット 758</title><g id="レイヤー_2" data-name="レイヤー 2"><g id="チャンネル番号のコピー"><g id="channel_02"><path class="cls-1" d="M40.76,31H2.53A2.52,2.52,0,0,1,0,28.52v-26A2.53,2.53,0,0,1,2.53,0H40.76a2.53,2.53,0,0,1,2.53,2.53v26A2.52,2.52,0,0,1,40.76,31ZM2.53,2A.53.53,0,0,0,2,2.53v26a.52.52,0,0,0,.53.52H40.76a.52.52,0,0,0,.53-.52v-26A.53.53,0,0,0,40.76,2Z"/><path class="cls-2" d="M26.23,21.14v3.05H14.69a7.92,7.92,0,0,1,1.12-3.28,21.74,21.74,0,0,1,3.71-4.12A24,24,0,0,0,22.25,14a3.67,3.67,0,0,0,.68-2,2.3,2.3,0,0,0-.59-1.69,2.2,2.2,0,0,0-1.64-.59,2.17,2.17,0,0,0-1.64.62,3.14,3.14,0,0,0-.7,2.06L15.08,12a5.37,5.37,0,0,1,1.84-3.9,6.17,6.17,0,0,1,3.86-1.19,5.57,5.57,0,0,1,4,1.38,4.48,4.48,0,0,1,1.45,3.41,6.1,6.1,0,0,1-.41,2.21,9.17,9.17,0,0,1-1.32,2.19,20.79,20.79,0,0,1-2.16,2.19c-1,1-1.69,1.59-2,1.9a5.86,5.86,0,0,0-.68.92Z"/></g></g></g></svg>