<svg xmlns="http://www.w3.org/2000/svg" viewBox="0 0 43.29 31.04"><defs><style>.cls-1{fill:#fff;}.cls-2{fill:#ededed;}</style></defs><title>アセット 751</title><g id="レイヤー_2" data-name="レイヤー 2"><g id="チャンネル番号のコピー"><g id="channel_09"><path class="cls-1" d="M40.76,31H2.53A2.52,2.52,0,0,1,0,28.52v-26A2.53,2.53,0,0,1,2.53,0H40.76a2.53,2.53,0,0,1,2.53,2.53v26A2.52,2.52,0,0,1,40.76,31ZM2.53,2A.53.53,0,0,0,2,2.53v26a.52.52,0,0,0,.53.52H40.76a.52.52,0,0,0,.53-.52v-26A.53.53,0,0,0,40.76,2Z"/><path class="cls-2" d="M15.18,20.22l3.19-.35A2.29,2.29,0,0,0,19,21.31a1.82,1.82,0,0,0,1.3.47A2.1,2.1,0,0,0,22,20.84,7.88,7.88,0,0,0,22.93,17a4,4,0,0,1-3.11,1.44,4.67,4.67,0,0,1-3.5-1.56,5.7,5.7,0,0,1-1.47-4.07,5.8,5.8,0,0,1,1.56-4.22,5.28,5.28,0,0,1,3.95-1.6,5.33,5.33,0,0,1,4.29,2q1.68,2,1.68,6.65c0,3.14-.59,5.4-1.75,6.79A5.65,5.65,0,0,1,20,24.5a4.8,4.8,0,0,1-3.25-1.07A5.23,5.23,0,0,1,15.18,20.22ZM22.64,13a3.76,3.76,0,0,0-.74-2.48,2.17,2.17,0,0,0-1.69-.87,1.9,1.9,0,0,0-1.52.72,3.68,3.68,0,0,0-.6,2.36,3.79,3.79,0,0,0,.65,2.44,2.07,2.07,0,0,0,1.65.78A2,2,0,0,0,22,15.23,3.23,3.23,0,0,0,22.64,13Z"/></g></g></g></svg>