<svg xmlns="http://www.w3.org/2000/svg" viewBox="0 0 43.29 31.04"><defs><style>.cls-1{fill:#fff;}.cls-2{fill:#ededed;}</style></defs><title>アセット 757</title><g id="レイヤー_2" data-name="レイヤー 2"><g id="チャンネル番号のコピー"><g id="channel_03"><path class="cls-1" d="M40.76,31H2.53A2.52,2.52,0,0,1,0,28.52v-26A2.53,2.53,0,0,1,2.53,0H40.76a2.53,2.53,0,0,1,2.53,2.53v26A2.52,2.52,0,0,1,40.76,31ZM2.53,2A.53.53,0,0,0,2,2.53v26a.52.52,0,0,0,.53.52H40.76a.52.52,0,0,0,.53-.52v-26A.53.53,0,0,0,40.76,2Z"/><path class="cls-2" d="M15,19.64l3.19-.39A3,3,0,0,0,19,21.11a2.27,2.27,0,0,0,1.62.65A2.23,2.23,0,0,0,22.34,21,3,3,0,0,0,23,18.9a2.81,2.81,0,0,0-.66-2,2.12,2.12,0,0,0-1.63-.73,5.44,5.44,0,0,0-1.51.25l.36-2.68a2.91,2.91,0,0,0,2-.58,2.08,2.08,0,0,0,.7-1.64,1.79,1.79,0,0,0-1.89-1.9,2,2,0,0,0-1.44.59A2.7,2.7,0,0,0,18.28,12l-3-.52a6.68,6.68,0,0,1,1-2.49A4.24,4.24,0,0,1,18,7.48a5.9,5.9,0,0,1,2.56-.54,5.13,5.13,0,0,1,3.89,1.55,4.08,4.08,0,0,1,1.21,2.86A4.05,4.05,0,0,1,23.16,15a4,4,0,0,1,2.36,1.42A4.11,4.11,0,0,1,26.41,19a5.14,5.14,0,0,1-1.65,3.85,5.7,5.7,0,0,1-4.12,1.6,5.67,5.67,0,0,1-3.86-1.34A5.3,5.3,0,0,1,15,19.64Z"/></g></g></g></svg>