<svg xmlns="http://www.w3.org/2000/svg" viewBox="0 0 43.29 31.04"><defs><style>.cls-1{fill:#fff;}.cls-2{fill:#ededed;}</style></defs><title>アセット 752</title><g id="レイヤー_2" data-name="レイヤー 2"><g id="チャンネル番号のコピー"><g id="channel_08"><path class="cls-1" d="M40.76,31H2.53A2.52,2.52,0,0,1,0,28.52v-26A2.53,2.53,0,0,1,2.53,0H40.76a2.53,2.53,0,0,1,2.53,2.53v26A2.52,2.52,0,0,1,40.76,31ZM2.53,2A.53.53,0,0,0,2,2.53v26a.52.52,0,0,0,.53.52H40.76a.52.52,0,0,0,.53-.52v-26A.53.53,0,0,0,40.76,2Z"/><path class="cls-2" d="M17.94,14.93a3.7,3.7,0,0,1-2.44-3.56A4.15,4.15,0,0,1,16.84,8.2a5.36,5.36,0,0,1,3.81-1.26A5.37,5.37,0,0,1,24.46,8.2a4.13,4.13,0,0,1,1.35,3.17,3.78,3.78,0,0,1-.62,2.13,4,4,0,0,1-1.75,1.43,4.61,4.61,0,0,1,2.18,1.67,4.48,4.48,0,0,1,.74,2.54A5.14,5.14,0,0,1,24.84,23a5.51,5.51,0,0,1-4,1.49,6.11,6.11,0,0,1-3.91-1.23,4.83,4.83,0,0,1-1.84-4,5,5,0,0,1,.7-2.56A4.43,4.43,0,0,1,17.94,14.93Zm.37,4a3,3,0,0,0,.7,2.12,2.24,2.24,0,0,0,1.74.76,2.19,2.19,0,0,0,1.69-.73A3.06,3.06,0,0,0,23.1,19a2.72,2.72,0,0,0-.68-1.94,2.26,2.26,0,0,0-1.72-.73,2.08,2.08,0,0,0-1.8.83A3.1,3.1,0,0,0,18.31,19Zm.31-7.36a2,2,0,0,0,.55,1.53,2,2,0,0,0,1.48.55,2,2,0,0,0,1.5-.55,2.06,2.06,0,0,0,.57-1.54,2,2,0,0,0-.56-1.49,2,2,0,0,0-1.47-.55,2.05,2.05,0,0,0-1.51.56A2,2,0,0,0,18.62,11.61Z"/></g></g></g></svg>