<svg xmlns="http://www.w3.org/2000/svg" viewBox="0 0 43.29 31.04"><defs><style>.cls-1{fill:#fff;}.cls-2{fill:#ededed;}</style></defs><title>アセット 750</title><g id="レイヤー_2" data-name="レイヤー 2"><g id="チャンネル番号のコピー"><g id="channel_10"><path class="cls-1" d="M40.76,31H2.53A2.52,2.52,0,0,1,0,28.52v-26A2.53,2.53,0,0,1,2.53,0H40.76a2.53,2.53,0,0,1,2.53,2.53v26A2.52,2.52,0,0,1,40.76,31ZM2.53,2A.53.53,0,0,0,2,2.53v26a.52.52,0,0,0,.53.52H40.76a.52.52,0,0,0,.53-.52v-26A.53.53,0,0,0,40.76,2Z"/><path class="cls-2" d="M17.16,24.19H13.87V11.78a11.29,11.29,0,0,1-4.25,2.5v-3a9.41,9.41,0,0,0,2.8-1.6,6,6,0,0,0,2.07-2.75h2.67Z"/><path class="cls-2" d="M27.05,6.94A4.7,4.7,0,0,1,31,8.73q1.66,2.1,1.67,7t-1.69,7a4.68,4.68,0,0,1-3.89,1.76,4.9,4.9,0,0,1-4-1.93c-1-1.29-1.54-3.58-1.54-6.87s.57-5.57,1.69-7A4.7,4.7,0,0,1,27.05,6.94Zm0,2.74a1.59,1.59,0,0,0-1.06.38,2.49,2.49,0,0,0-.73,1.36,18.64,18.64,0,0,0-.34,4.3,19,19,0,0,0,.3,4.16,3,3,0,0,0,.77,1.5,1.64,1.64,0,0,0,1.06.38,1.67,1.67,0,0,0,1.07-.38A2.66,2.66,0,0,0,28.85,20a19,19,0,0,0,.34-4.29,18.76,18.76,0,0,0-.31-4.15,2.88,2.88,0,0,0-.77-1.51A1.59,1.59,0,0,0,27.05,9.68Z"/></g></g></g></svg>