<svg xmlns="http://www.w3.org/2000/svg" viewBox="0 0 43.29 31.04"><defs><style>.cls-1{fill:#fff;}.cls-2{fill:#ededed;}</style></defs><title>アセット 754</title><g id="レイヤー_2" data-name="レイヤー 2"><g id="チャンネル番号のコピー"><g id="channel_06"><path class="cls-1" d="M40.76,31H2.53A2.52,2.52,0,0,1,0,28.52v-26A2.53,2.53,0,0,1,2.53,0H40.76a2.53,2.53,0,0,1,2.53,2.53v26A2.52,2.52,0,0,1,40.76,31ZM2.53,2A.53.53,0,0,0,2,2.53v26a.52.52,0,0,0,.53.52H40.76a.52.52,0,0,0,.53-.52v-26A.53.53,0,0,0,40.76,2Z"/><path class="cls-2" d="M26.27,11.22l-3.19.35a2.32,2.32,0,0,0-.61-1.45,1.79,1.79,0,0,0-1.28-.47,2.15,2.15,0,0,0-1.76.94,8,8,0,0,0-.91,3.9A3.84,3.84,0,0,1,21.58,13a4.64,4.64,0,0,1,3.53,1.57,5.7,5.7,0,0,1,1.47,4.05A5.81,5.81,0,0,1,25,22.89a5.28,5.28,0,0,1-4,1.6,5.31,5.31,0,0,1-4.27-2q-1.68-2-1.68-6.63T16.86,9a5.63,5.63,0,0,1,4.53-2.09A4.8,4.8,0,0,1,24.63,8,5.14,5.14,0,0,1,26.27,11.22ZM18.8,18.41a3.72,3.72,0,0,0,.74,2.47,2.16,2.16,0,0,0,1.69.88A1.9,1.9,0,0,0,22.75,21a3.57,3.57,0,0,0,.61-2.34,3.83,3.83,0,0,0-.65-2.46,2.07,2.07,0,0,0-1.65-.78,2.05,2.05,0,0,0-1.6.75A3.21,3.21,0,0,0,18.8,18.41Z"/></g></g></g></svg>