<svg xmlns="http://www.w3.org/2000/svg" viewBox="0 0 47.42 34"><defs><style>.cls-1{fill:#fff;}.cls-2{fill:#ededed;}</style></defs><title>アセット 760</title><g id="レイヤー_2" data-name="レイヤー 2"><g id="チャンネル番号のコピー"><g id="channel_blank"><path class="cls-1" d="M44.65,34H2.77A2.77,2.77,0,0,1,0,31.23V2.77A2.77,2.77,0,0,1,2.77,0H44.65a2.78,2.78,0,0,1,2.77,2.77V31.23A2.78,2.78,0,0,1,44.65,34ZM2.77,2.19a.58.58,0,0,0-.58.58V31.23a.58.58,0,0,0,.58.58H44.65a.58.58,0,0,0,.58-.58V2.77a.58.58,0,0,0-.58-.58Z"/><path class="cls-2" d="M18.25,19.29V15.68h11v3.61Z"/></g></g></g></svg>