<svg xmlns="http://www.w3.org/2000/svg" viewBox="0 0 43.29 31.04"><defs><style>.cls-1{fill:#fff;}.cls-2{fill:#ededed;}</style></defs><title>アセット 753</title><g id="レイヤー_2" data-name="レイヤー 2"><g id="チャンネル番号のコピー"><g id="channel_07"><path class="cls-1" d="M40.76,31H2.53A2.52,2.52,0,0,1,0,28.52v-26A2.53,2.53,0,0,1,2.53,0H40.76a2.53,2.53,0,0,1,2.53,2.53v26A2.52,2.52,0,0,1,40.76,31ZM2.53,2A.53.53,0,0,0,2,2.53v26a.52.52,0,0,0,.53.52H40.76a.52.52,0,0,0,.53-.52v-26A.53.53,0,0,0,40.76,2Z"/><path class="cls-2" d="M15.11,10.31V7.25H26.37V9.64a17.63,17.63,0,0,0-2.83,3.94A22.89,22.89,0,0,0,21.34,19a20.33,20.33,0,0,0-.74,5.16H17.42a22.36,22.36,0,0,1,1.47-7.26,24.14,24.14,0,0,1,3.71-6.62Z"/></g></g></g></svg>