<svg xmlns="http://www.w3.org/2000/svg" viewBox="0 0 43.29 31.04"><defs><style>.cls-1{fill:#fff;}.cls-2{fill:#ededed;}</style></defs><title>アセット 749</title><g id="レイヤー_2" data-name="レイヤー 2"><g id="チャンネル番号のコピー"><g id="channel_11"><path class="cls-1" d="M40.76,31H2.53A2.52,2.52,0,0,1,0,28.52v-26A2.53,2.53,0,0,1,2.53,0H40.76a2.53,2.53,0,0,1,2.53,2.53v26A2.52,2.52,0,0,1,40.76,31ZM2.53,2A.53.53,0,0,0,2,2.53v26a.52.52,0,0,0,.53.52H40.76a.52.52,0,0,0,.53-.52v-26A.53.53,0,0,0,40.76,2Z"/><path class="cls-2" d="M17.16,24.19H13.87V11.78a11.29,11.29,0,0,1-4.25,2.5v-3a9.41,9.41,0,0,0,2.8-1.6,6,6,0,0,0,2.07-2.75h2.67Z"/><path class="cls-2" d="M29.91,24.19H26.62V11.78a11.25,11.25,0,0,1-4.26,2.5v-3a9.44,9.44,0,0,0,2.81-1.6,6.12,6.12,0,0,0,2.07-2.75h2.67Z"/></g></g></g></svg>