<svg xmlns="http://www.w3.org/2000/svg" viewBox="0 0 43.29 31.04"><defs><style>.cls-1{fill:#fff;}.cls-2{fill:#ededed;}</style></defs><title>アセット 755</title><g id="レイヤー_2" data-name="レイヤー 2"><g id="チャンネル番号のコピー"><g id="channel_05"><path class="cls-1" d="M40.76,31H2.53A2.52,2.52,0,0,1,0,28.52v-26A2.53,2.53,0,0,1,2.53,0H40.76a2.53,2.53,0,0,1,2.53,2.53v26A2.52,2.52,0,0,1,40.76,31ZM2.53,2A.53.53,0,0,0,2,2.53v26a.52.52,0,0,0,.53.52H40.76a.52.52,0,0,0,.53-.52v-26A.53.53,0,0,0,40.76,2Z"/><path class="cls-2" d="M15.16,19.78l3.28-.34a2.79,2.79,0,0,0,.83,1.76,2.27,2.27,0,0,0,1.6.65A2.2,2.2,0,0,0,22.61,21a3.79,3.79,0,0,0,.72-2.52,3.49,3.49,0,0,0-.71-2.38,2.39,2.39,0,0,0-1.85-.79,3.35,3.35,0,0,0-2.54,1.26l-2.67-.39,1.68-8.94H26v3.08H19.74l-.51,2.92a5,5,0,0,1,6,1,5.72,5.72,0,0,1,1.52,4.14,6.2,6.2,0,0,1-1.23,3.78,5.44,5.44,0,0,1-4.65,2.28A5.78,5.78,0,0,1,17,23.21,5.24,5.24,0,0,1,15.16,19.78Z"/></g></g></g></svg>