<svg xmlns="http://www.w3.org/2000/svg" viewBox="0 0 96 96.06"><defs><style>.cls-1{fill:#333;fill-opacity:0.5;}.cls-2{fill:#ededed;}</style></defs><title>アセット 916</title><g id="レイヤー_2" data-name="レイヤー 2"><g id="メインメニュー"><g id="main_設定_アクティブB"><circle class="cls-1" cx="48" cy="48.06" r="48"/><path class="cls-2" d="M48,0A48,48,0,1,0,96,48,48,48,0,0,0,48,0Zm0,93.66A45.66,45.66,0,1,1,93.66,48,45.66,45.66,0,0,1,48,93.66Z"/><path class="cls-2" d="M48.19,43.44a5.43,5.43,0,1,0,5.44,5.49A5.47,5.47,0,0,0,48.19,43.44Z"/><path class="cls-2" d="M72.33,52.64V45.1H63.2A15.55,15.55,0,0,0,61.45,41l6.48-6.48L62.6,29.14,56.13,35.6A15.32,15.32,0,0,0,52,33.84v-9.1H44.43v9.1a15.42,15.42,0,0,0-4.18,1.75L33.8,29.14l-5.33,5.33,6.42,6.42a15.2,15.2,0,0,0-1.78,4.21h-9v7.54h9.11a15.85,15.85,0,0,0,1.74,4.17l-6.45,6.46L33.8,68.6l6.43-6.43a15.11,15.11,0,0,0,4.2,1.75V73H52V63.89a15.74,15.74,0,0,0,4.15-1.77L62.6,68.6l5.33-5.33-6.45-6.45a15,15,0,0,0,1.78-4.18ZM48.16,61A12.12,12.12,0,1,1,60.32,49,12.19,12.19,0,0,1,48.16,61Z"/></g></g></g></svg>