<svg xmlns="http://www.w3.org/2000/svg" viewBox="0 0 68 56.01"><defs><style>.cls-1{fill:none;}.cls-2{fill:#ededed;}.cls-3{fill:#7bb045;}</style></defs><title>アセット 991</title><g id="レイヤー_2" data-name="レイヤー 2"><g id="_追加_赤枠新規_" data-name="※※※追加※※※（赤枠新規）"><g id="視聴設定_ガイド" data-name="視聴設定+ガイド"><rect class="cls-1" width="68" height="56"/><path class="cls-2" d="M35.81,51.31l-.3-.29H16.09V33.39H35.46l.35-.35,3.81-3.78H33.44l4.15-4.11-2-1.95-6,5.94.07.07-.05.05,0,0v0l-.06-.05.07-.07-6-5.94-2,1.95,4.15,4.11H12V55.15H39.67Z"/><path class="cls-2" d="M53.12,45a5.41,5.41,0,0,1-.58.12h-.65l-.17,0-.14,0-.12,0-.19,0,0,0a2.5,2.5,0,0,1-.25-.09h0a2.93,2.93,0,0,1-.77-.48l0,0a3.24,3.24,0,0,1-.88-1.21A3.33,3.33,0,0,1,49,41.89a3.2,3.2,0,0,1,3.2-3.13h.32l.13,0,.19,0,.11,0,.19,0,.1,0,.19.07.1.05.18.09.08,0,.18.12.08,0,.17.13.06.06.17.15.09.1a.69.69,0,0,1,.11.13l.09.1.1.14.09.15.07.12.09.18a.93.93,0,0,1,.05.1,4.51,4.51,0,0,1,.17.52.24.24,0,0,0,0,.08s0,.09,0,.13a4.21,4.21,0,0,1,0,.51A3.21,3.21,0,0,1,53.12,45Z"/><path class="cls-2" d="M60.9,44.76c.07-.21.14-.42.19-.64h5.34v-4.4H61.06l-.1-.31A9.3,9.3,0,0,0,60,37.3l3.82-3.78-1.05-1L60.7,30.41l-3.8,3.77c-.19-.11-.38-.22-.58-.32a9.36,9.36,0,0,0-1.87-.71V27.84H50v5.31a9.33,9.33,0,0,0-1.87.7l-.09,0-.5.27-1.41-1.4L46,32.63l-2-1.94-.29-.28-.29.28-1.95,1.94-.9.89,1.93,1.91,0,0,.19.18,1.62,1.61a8.78,8.78,0,0,0-.92,2c0,.15-.09.29-.13.43H38v4.4H43.4a8.75,8.75,0,0,0,.34,1.06,9.82,9.82,0,0,0,.68,1.38l-1.83,1.81,0,0,0,0-1.9,1.89,1,.93,2,1.94.24.24L44,53.2l.71-.7L46,51.26l.19-.18h0l1.4-1.39.51.28.07,0a9,9,0,0,0,1.24.51l.65.19V56h4.44V50.69A9.38,9.38,0,0,0,56,50.12a9.17,9.17,0,0,0,.88-.46l3.81,3.78,2.09-2.08,1.05-1-1.9-1.89L60,46.56a8.73,8.73,0,0,0,.62-1.17Q60.8,45.08,60.9,44.76ZM52.21,49h0l-.4,0h-.33l-.4-.06-.3,0-.51-.13-.17,0-.59-.22-.06,0a7.22,7.22,0,0,1-4.35-6.59,5.77,5.77,0,0,1,.14-1.38,6.64,6.64,0,0,1,.41-1.31,7.84,7.84,0,0,1,.49-.9c.06-.09.11-.19.18-.28a6.73,6.73,0,0,1,.88-1,4.72,4.72,0,0,1,.41-.37c.14-.12.29-.23.44-.34l.46-.31a7.08,7.08,0,0,1,3.72-1.07l.41,0,.31,0,.48.07.22,0,.54.14.14,0,.57.21.08,0,.47.22A7.22,7.22,0,0,1,59.36,42,6.64,6.64,0,0,1,59,44a7.19,7.19,0,0,1-6.83,5Z"/><rect class="cls-3" x="18.44" y="0.01" width="31.11" height="7" rx="1.56"/></g></g></g></svg>