<svg xmlns="http://www.w3.org/2000/svg" viewBox="0 0 96 96.06"><defs><style>.cls-1{fill:#333;fill-opacity:0.5;}.cls-2{fill:#ededed;}</style></defs><title>アセット 915</title><g id="レイヤー_2" data-name="レイヤー 2"><g id="メインメニュー"><g id="main_TVを見る_アクティブB"><circle class="cls-1" cx="48" cy="48.06" r="48"/><path class="cls-2" d="M48,0A48,48,0,1,0,96,48,48,48,0,0,0,48,0Zm0,93.66A45.66,45.66,0,1,1,93.66,48,45.66,45.66,0,0,1,48,93.66Z"/><g id="_" data-name="ＴＶ"><path class="cls-2" d="M36.6,25.08l2.91-2.91,9,9L45.56,34Z"/><path class="cls-2" d="M51.18,34l-2.91-2.91,8.95-9,2.91,2.91Z"/><path class="cls-2" d="M22.28,31.21V69.77H75V31.21ZM71.75,66.46H25.53V34.53H71.75Z"/><rect class="cls-2" x="31.52" y="39.33" width="34.19" height="22.24"/></g></g></g></g></svg>