<svg xmlns="http://www.w3.org/2000/svg" viewBox="0 0 30.96 51.13"><title>アセット 323</title><g id="レイヤー_2" data-name="レイヤー 2"><g id="高度BS_設定画面"><g id="ヘルプ"><path d="M20.49,36.46h-9.2a11.23,11.23,0,0,1,2.13-8.89c1.92-2.83,4.24-5.39,6.09-8.26a11,11,0,0,0,1.89-5.18,5.53,5.53,0,0,0-5.31-5.61c-3.49-.29-5.63,1.16-6.54,4.42-.14.49-.28,1-.45,1.57H0A13.3,13.3,0,0,1,5.91,2.81a17.34,17.34,0,0,1,19,0A13.72,13.72,0,0,1,29.14,21a87.47,87.47,0,0,1-5.53,7.86C22,31.1,20.09,33.2,20.49,36.46Z"/><path d="M20.68,51.13h-9.9V41.62c3,0,5.88,0,8.77.06a1.66,1.66,0,0,1,1.08,1.19C20.73,45.55,20.68,48.23,20.68,51.13Z"/></g></g></g></svg>