<svg xmlns="http://www.w3.org/2000/svg" viewBox="0 0 96 96"><defs><style>.cls-1{fill:#333;opacity:0.5;}.cls-2{fill:#999;}</style></defs><title>アセット 907</title><g id="レイヤー_2" data-name="レイヤー 2"><g id="メインメニュー"><g id="main_番組表B"><path class="cls-1" d="M48,0A48,48,0,1,0,96,48,48,48,0,0,0,48,0Z"/><path class="cls-2" d="M52.89,45.66h-9.1V37.44h9.1Zm0,3.67h-9.1V59.47h9.1ZM40.4,37.26H31.3v4.83h9.1Zm25,19.2H56.27v3.38h9.11Zm-25-3.06H31.3v6.28h9.1Zm0-8.56H31.3v6.28h9.1Zm25-7.26H56.27V48.2h9.11Zm0,13.52H56.27v3.39h9.11Zm9.08-21.87V67.79H21.74V29.23Zm-3.25,3.32H25V64.48H71.21Z"/></g></g></g></svg>