<svg xmlns="http://www.w3.org/2000/svg" viewBox="0 0 96 96"><defs><style>.cls-1{fill:#333;opacity:0.5;}.cls-2{fill:#999;}</style></defs><title>アセット 909</title><g id="レイヤー_2" data-name="レイヤー 2"><g id="メインメニュー"><g id="main_設定B"><path class="cls-1" d="M48,0A48,48,0,1,0,96,48,48,48,0,0,0,48,0Z"/><path class="cls-2" d="M48.09,43.39a5.43,5.43,0,1,0,5.44,5.48A5.45,5.45,0,0,0,48.09,43.39Z"/><path class="cls-2" d="M72.23,52.59V45.05H63.1a15.55,15.55,0,0,0-1.75-4.15l6.48-6.48L62.5,29.09,56,35.55a15.67,15.67,0,0,0-4.16-1.77V24.69H44.33v9.09a15.58,15.58,0,0,0-4.18,1.76L33.7,29.09l-5.33,5.33,6.42,6.42A15.07,15.07,0,0,0,33,45.05H24v7.54h9.11a16.19,16.19,0,0,0,1.74,4.17l-6.45,6.45,5.33,5.34,6.43-6.43a15.11,15.11,0,0,0,4.2,1.75V73h7.54V63.84A15.74,15.74,0,0,0,56,62.07l6.48,6.48,5.33-5.34-6.45-6.44a15.17,15.17,0,0,0,1.79-4.18ZM48.06,60.93a12.12,12.12,0,1,1,12.16-12A12.2,12.2,0,0,1,48.06,60.93Z"/></g></g></g></svg>