<svg xmlns="http://www.w3.org/2000/svg" xmlns:xlink="http://www.w3.org/1999/xlink" viewBox="0 0 96 96"><defs><style>.cls-1{fill:url(#新規グラデーションスウォッチ_13);}.cls-2{fill:url(#新規グラデーションスウォッチ_13-2);}.cls-3{fill:url(#新規グラデーションスウォッチ_13-3);}</style><linearGradient id="新規グラデーションスウォッチ_13" y1="48" x2="96" y2="48" gradientUnits="userSpaceOnUse"><stop offset="0.01" stop-color="#cce700"/><stop offset="1" stop-color="#d4fd9e"/></linearGradient><linearGradient id="新規グラデーションスウォッチ_13-2" x1="25.71" y1="50.47" x2="71.93" y2="50.47" xlink:href="#新規グラデーションスウォッチ_13"/><linearGradient id="新規グラデーションスウォッチ_13-3" x1="8.27" y1="47.63" x2="87.57" y2="47.63" xlink:href="#新規グラデーションスウォッチ_13"/></defs><title>アセット 923</title><g id="レイヤー_2" data-name="レイヤー 2"><g id="メインメニュー"><g id="main_TVを見る_セレクト"><path class="cls-1" d="M48,0A48,48,0,1,0,96,48,48,48,0,0,0,48,0Zm0,93.66A45.66,45.66,0,1,1,93.66,48,45.66,45.66,0,0,1,48,93.66Z"/><path class="cls-2" d="M25.71,66.43H71.93V34.51H25.71Zm6-27.12H65.9V61.55H31.71Z"/><path class="cls-3" d="M47.92,8A39.66,39.66,0,1,0,87.57,47.63,39.65,39.65,0,0,0,47.92,8ZM75.18,69.75H22.46V31.19H42.92l-6.13-6.13,2.91-2.91L48.55,31l8.86-8.85,2.91,2.91-6.13,6.13h21Z"/></g></g></g></svg>