<svg xmlns="http://www.w3.org/2000/svg" viewBox="0 0 96 96.06"><defs><style>.cls-1{fill:#333;fill-opacity:0.5;}.cls-2{fill:#ededed;}</style></defs><title>アセット 912</title><g id="レイヤー_2" data-name="レイヤー 2"><g id="メインメニュー"><g id="main_予約一覧_アクティブB"><circle class="cls-1" cx="48" cy="48.06" r="48"/><path class="cls-2" d="M48,0A48,48,0,1,0,96,48,48,48,0,0,0,48,0Zm0,93.66A45.66,45.66,0,1,1,93.66,48,45.66,45.66,0,0,1,48,93.66Z"/><path class="cls-2" d="M26.82,52.43H48.53v-4H26.82Z"/><path class="cls-2" d="M26.84,39.07v4.07H48.5V39.07Z"/><path class="cls-2" d="M20.37,38.32a2.41,2.41,0,0,0-2.45,2.42,2.4,2.4,0,1,0,4.8,0A2.38,2.38,0,0,0,20.37,38.32Z"/><path class="cls-2" d="M20.33,29a2.41,2.41,0,1,0,0,4.82,2.41,2.41,0,0,0,0-4.82Z"/><path class="cls-2" d="M26.84,33.8h21.7v-4H26.84Z"/><path class="cls-2" d="M20.32,47.65a2.43,2.43,0,0,0-2.4,2.4,2.4,2.4,0,1,0,2.4-2.4Z"/><path class="cls-2" d="M67.34,38.94a14.9,14.9,0,1,0,14.9,16.37v-3A14.94,14.94,0,0,0,67.34,38.94Zm0,26.51A11.62,11.62,0,1,1,79,53.84,11.64,11.64,0,0,1,67.34,65.45Z"/><path class="cls-2" d="M65.32,55.85V45.53h3.32v7H75.7v3.3Z"/></g></g></g></svg>