<svg xmlns="http://www.w3.org/2000/svg" viewBox="0 0 96 96.06"><defs><style>.cls-1{fill:#333;fill-opacity:0.5;}.cls-2{fill:#ededed;}</style></defs><title>アセット 914</title><g id="レイヤー_2" data-name="レイヤー 2"><g id="メインメニュー"><g id="main_番組表_アクティブB"><circle class="cls-1" cx="48" cy="48.06" r="48"/><path class="cls-2" d="M48,0A48,48,0,1,0,96,48,48,48,0,0,0,48,0Zm0,93.66A45.66,45.66,0,1,1,93.66,48,45.66,45.66,0,0,1,48,93.66Z"/><path class="cls-2" d="M52.92,45.71h-9.1V37.5h9.1Zm0,3.67h-9.1V59.53h9.1ZM40.44,37.31h-9.1v4.84h9.1Zm25,19.2h-9.1v3.38h9.1Zm-25-3.06h-9.1v6.28h9.1Zm0-8.56h-9.1v6.28h9.1Zm25-7.26h-9.1V48.26h9.1Zm0,13.53h-9.1v3.38h9.1Zm9.08-21.88V67.85H21.77V29.28ZM71.24,32.6H25V64.53H71.24Z"/></g></g></g></svg>