<svg xmlns="http://www.w3.org/2000/svg" viewBox="0 0 62.5 58.62"><defs><style>.cls-1{fill:#ededed;}</style></defs><title>アセット 436 (2)</title><g id="レイヤー_2" data-name="レイヤー 2"><g id="設定画面"><g id="テレビ設定"><path class="cls-1" d="M30.62,34.74H6.68V14.24H39v3.55a19.93,19.93,0,0,1,6.68-4.94V7.5H27.31L32.4,2.41,30,0,22.64,7.34,15.29,0,12.88,2.41,18,7.5H0v34H23.69C25.84,39.34,28.68,36.66,30.62,34.74Z"/><path class="cls-1" d="M62.2,24.79c-.07-.34-.21-.67-.36-1.14-.33.31-.55.5-.76.71-1.62,1.62-3.22,3.25-4.88,4.83a1.74,1.74,0,0,1-1.23.44c-1.63-.18-3.25-.46-4.88-.69a.79.79,0,0,1-.76-.82,17.17,17.17,0,0,0-.49-3.05,3.58,3.58,0,0,1,1.39-4.19c1.56-1.32,2.91-2.9,4.44-4.46l-2.77-.71H49.56c-.65.16-1.29.31-1.93.49a11.79,11.79,0,0,0-8.32,14.37,1.3,1.3,0,0,1-.4,1.46q-7.54,7.5-15.06,15c-1.6,1.61-3.44,3-4.13,5.36V54.1a6.46,6.46,0,0,1,.27.6,5.16,5.16,0,0,0,4.12,3.79,1.6,1.6,0,0,1,.3.13h1.18A7.81,7.81,0,0,0,29.83,56c5.44-5.49,10.94-10.93,16.39-16.42a1.45,1.45,0,0,1,1.69-.45,7.09,7.09,0,0,0,1.89.35A11.87,11.87,0,0,0,62.2,24.79ZM26.35,54.11A2.22,2.22,0,0,1,24.21,52a2.14,2.14,0,0,1,2.13-2.16A2.1,2.1,0,0,1,28.51,52,2.18,2.18,0,0,1,26.35,54.11Z"/></g></g></g></svg>