<svg xmlns="http://www.w3.org/2000/svg" viewBox="0 0 35.12 33"><defs><style>.cls-1{fill:#fff;}.cls-2{fill:none;}</style></defs><title>アセット 21</title><g id="レイヤー_2" data-name="レイヤー 2"><g id="レイヤー_2-2" data-name="レイヤー 2"><g id="icon_09.svgネット検索"><path class="cls-1" d="M34.28,26.21l-2.77-2.78L29.2,21.1A7.35,7.35,0,0,0,25.9,9.82a7.28,7.28,0,0,0-7.82,1.8A7.35,7.35,0,0,0,17.41,21c.14.2.29.39.45.57a7.37,7.37,0,0,0,1.23,1.13,7.25,7.25,0,0,0,4.25,1.37,7.2,7.2,0,0,0,2.77-.55,7.36,7.36,0,0,0,1.65-1l.43.43,2.3,2.31,1.42,1.43,1.15,1.16.56.56.58-.54.9-.85ZM27.17,20a5,5,0,0,1-2,1.33,4.9,4.9,0,0,1-1.69.3l-.52,0a4.94,4.94,0,0,1,0-9.84l.48,0a4.93,4.93,0,0,1,4.83,3.94c0,.09,0,.18.05.27a4.48,4.48,0,0,1,0,1.45c0,.05,0,.1,0,.16A4.92,4.92,0,0,1,27.17,20Z"/><path class="cls-2" d="M17.29,30.9c1.42.1,3.73-2.26,4.5-4.35a9.83,9.83,0,0,1-2.37-.69L19,25.67H17.29Z"/><path class="cls-2" d="M10.7,8.89a.75.75,0,0,0-.5.49c-.29,1.36-.56,2.72-.78,4.1-.11.73-.11,1.47-.16,2.24h4.22a9.9,9.9,0,0,1,1.87-4.89c.12-.16.25-.33.38-.49V8.87C14,8.87,12.35,8.85,10.7,8.89Z"/><path class="cls-2" d="M18.57,2.43a7.12,7.12,0,0,0-1.28-.5V7.35h2.63a9.8,9.8,0,0,1,2-.5A9.45,9.45,0,0,0,18.57,2.43Z"/><path class="cls-2" d="M10.32,24.08h5.39v-1c-.15-.18-.29-.36-.42-.54a9.92,9.92,0,0,1-1.85-5.24H9.25A25.21,25.21,0,0,0,10.32,24.08Z"/><path class="cls-2" d="M27.46,25.94l-.11-.11-.21.09a9.79,9.79,0,0,1-3.78.75h-.1c-.57,1.12-1.13,2.25-1.7,3.38A14.47,14.47,0,0,0,27.46,25.94Z"/><path class="cls-2" d="M21.56,3c.64,1.28,1.26,2.54,1.9,3.8a9.84,9.84,0,0,1,3.35.62h.91A14.44,14.44,0,0,0,21.56,3Z"/><path class="cls-2" d="M14.79,30.79a3.63,3.63,0,0,0,.93.21V25.66H10.85C11.75,27.75,12.76,29.65,14.79,30.79Z"/><path class="cls-2" d="M9,25.64c-1.19,0-2.38,0-3.75,0a14.48,14.48,0,0,0,6.16,4.42c-.69-1.38-1.36-2.76-2.06-4.12A.54.54,0,0,0,9,25.64Z"/><path class="cls-2" d="M15.72,7.32V2.09C14,2,11.11,5.31,11,7.32Z"/><path class="cls-2" d="M5.5,7.34c1.18,0,2.36,0,3.53,0a.47.47,0,0,0,.31-.24c.7-1.38,1.39-2.77,2.1-4.17a14.35,14.35,0,0,0-6,4.27C5.45,7.28,5.48,7.34,5.5,7.34Z"/><path class="cls-2" d="M8.63,8.87H6.52C4,8.87,3.95,8.86,3,11.26a13.43,13.43,0,0,0-.95,4.44H7.65Z"/><path class="cls-2" d="M8.62,24.13l-1-6.84H2.06a14.06,14.06,0,0,0,2,6.65.5.5,0,0,0,.37.19C5.87,24.14,7.26,24.13,8.62,24.13Z"/><path class="cls-1" d="M32.47,12.58A16.41,16.41,0,0,0,18.14.13,2.79,2.79,0,0,1,17.66,0H15.34c-.75.13-1.51.25-2.26.4a16.43,16.43,0,0,0-13,14.45,3,3,0,0,1-.13.48q0,1.16,0,2.32c.17.92.31,1.85.52,2.76A16.4,16.4,0,0,0,13.84,32.74l1.5.26h2.32c.9-.17,1.81-.3,2.69-.51a16.36,16.36,0,0,0,8.51-5.13l-1.41-1.42a14.47,14.47,0,0,1-5.9,4.11c.57-1.14,1.13-2.26,1.7-3.38a9.94,9.94,0,0,1-1.46-.12C21,28.64,18.72,31,17.29,30.9V25.67H19a9.85,9.85,0,0,1-3.11-2.39l-.19-.23v1H10.32a25.21,25.21,0,0,1-1.07-6.81h4.19c0-.19,0-.38,0-.57s0-.67.05-1H9.26c0-.76,0-1.51.16-2.24.22-1.37.49-2.74.78-4.1a.75.75,0,0,1,.5-.49c1.65,0,3.3,0,5,0v1.47c.15-.18.3-.35.46-.52a9.89,9.89,0,0,1,3.74-2.47H17.29V1.93a7.12,7.12,0,0,1,1.28.5,9.45,9.45,0,0,1,3.35,4.41,10.07,10.07,0,0,1,1.42-.1h.11c-.63-1.25-1.26-2.51-1.9-3.8a14.44,14.44,0,0,1,6.16,4.42h-.91a9.91,9.91,0,0,1,2.7,1.53,10,10,0,0,1,3,4.1C32.54,12.86,32.51,12.72,32.47,12.58ZM3,11.26c.94-2.4.94-2.39,3.51-2.39H8.63l-1,6.84H2.06A13.43,13.43,0,0,1,3,11.26ZM4.48,24.12a.5.5,0,0,1-.37-.19,14.06,14.06,0,0,1-2-6.65h5.6l1,6.84C7.26,24.13,5.87,24.14,4.48,24.12Zm11.24,1.54V31a3.63,3.63,0,0,1-.93-.21c-2-1.13-3-3-3.94-5.13Zm-6.34.27c.69,1.37,1.37,2.74,2.06,4.12a14.48,14.48,0,0,1-6.16-4.42c1.37,0,2.56,0,3.75,0A.54.54,0,0,1,9.37,25.93Zm0-18.81A.47.47,0,0,1,9,7.36c-1.18,0-2.36,0-3.53,0,0,0,0-.06-.09-.13a14.35,14.35,0,0,1,6-4.27C10.74,4.35,10.05,5.73,9.35,7.11Zm6.37.2H11c.12-2,3-5.3,4.72-5.23Z"/><path class="cls-1" d="M34.28,26.21l-2.77-2.78-.05-.05-1.56-1.56-.7-.71a7.33,7.33,0,0,0,1.44-3.8c0-.19,0-.39,0-.59a7.42,7.42,0,0,0-.07-1,7.34,7.34,0,0,0-4.7-5.89,7.36,7.36,0,0,0-2.55-.46l-.55,0a7.27,7.27,0,0,0-4.73,2.24,7.38,7.38,0,0,0-.62.74l-.15.22a7.32,7.32,0,0,0,0,8.24l.11.17c.14.2.29.39.45.57a7.37,7.37,0,0,0,1.23,1.13,7.27,7.27,0,0,0,8.67-.14l.43.43.79.79,1.46,1.47.05.05,1.42,1.43,1.15,1.16.56.56.58-.54.9-.85Zm-5.89-8.8c0,.05,0,.1,0,.16a4.94,4.94,0,0,1-3.16,3.76l-.45.14a4.89,4.89,0,0,1-1.24.16h-.29l-.23,0a5,5,0,0,1-4.34-4c0-.1,0-.2,0-.3a4.84,4.84,0,0,1,0-.61,5,5,0,0,1,.1-1v-.06A5,5,0,0,1,23,11.76l.32,0h.16a4.92,4.92,0,0,1,1.3.17l.42.14a5,5,0,0,1,3.11,3.63v0c0,.08,0,.16,0,.24a5,5,0,0,1,.06.73,4.7,4.7,0,0,1,0,.61Z"/></g></g></g></svg>