<svg xmlns="http://www.w3.org/2000/svg" viewBox="0 0 96 96.06"><defs><style>.cls-1{fill:#333;fill-opacity:0.5;}.cls-2{fill:#ededed;}</style></defs><title>アセット 913</title><g id="レイヤー_2" data-name="レイヤー 2"><g id="メインメニュー"><g id="main_録画番組_アクティブB"><circle class="cls-1" cx="48" cy="48.06" r="48"/><path class="cls-2" d="M48,0A48,48,0,1,0,96,48,48,48,0,0,0,48,0Zm0,93.66A45.66,45.66,0,1,1,93.66,48,45.66,45.66,0,0,1,48,93.66Z"/><path class="cls-2" d="M26.65,52.38H48.37v-4H26.65Z"/><path class="cls-2" d="M26.67,39v4.07H48.34V39Z"/><path class="cls-2" d="M20.2,38.27a2.4,2.4,0,0,0-2.44,2.41,2.4,2.4,0,1,0,4.8,0A2.4,2.4,0,0,0,20.2,38.27Z"/><path class="cls-2" d="M20.16,29a2.41,2.41,0,1,0,2.4,2.39A2.43,2.43,0,0,0,20.16,29Z"/><path class="cls-2" d="M26.67,33.75h21.7v-4H26.67Z"/><path class="cls-2" d="M20.15,47.6A2.42,2.42,0,0,0,17.76,50a2.4,2.4,0,1,0,2.39-2.4Z"/><path class="cls-2" d="M55.41,70.44l23.8-13.56L55.41,43.31Z"/></g></g></g></svg>