<svg xmlns="http://www.w3.org/2000/svg" xmlns:xlink="http://www.w3.org/1999/xlink" viewBox="0 0 96 96"><defs><style>.cls-1{fill:url(#新規グラデーションスウォッチ_13);}.cls-2{fill:url(#新規グラデーションスウォッチ_13-2);}.cls-3{fill:url(#新規グラデーションスウォッチ_13-3);}</style><linearGradient id="新規グラデーションスウォッチ_13" y1="48" x2="96" y2="48" gradientUnits="userSpaceOnUse"><stop offset="0.01" stop-color="#cce700"/><stop offset="1" stop-color="#d4fd9e"/></linearGradient><linearGradient id="新規グラデーションスウォッチ_13-2" x1="35.97" y1="48.85" x2="60.22" y2="48.85" xlink:href="#新規グラデーションスウォッチ_13"/><linearGradient id="新規グラデーションスウォッチ_13-3" x1="8.27" y1="47.63" x2="87.57" y2="47.63" xlink:href="#新規グラデーションスウォッチ_13"/></defs><title>アセット 924</title><g id="レイヤー_2" data-name="レイヤー 2"><g id="メインメニュー"><g id="main_設定_セレクト"><path class="cls-1" d="M48,0A48,48,0,1,0,96,48,48,48,0,0,0,48,0Zm0,93.66A45.66,45.66,0,1,1,93.66,48,45.66,45.66,0,0,1,48,93.66Z"/><path class="cls-2" d="M48.09,36.73A12.12,12.12,0,1,0,60.22,49,12.2,12.2,0,0,0,48.09,36.73Zm0,17.55a5.43,5.43,0,1,1,5.45-5.38A5.52,5.52,0,0,1,48.08,54.28Z"/><path class="cls-3" d="M47.92,8A39.66,39.66,0,1,0,87.57,47.63,39.65,39.65,0,0,0,47.92,8ZM72.23,52.62H63.17a15,15,0,0,1-1.79,4.18l6.45,6.45L62.5,68.58,56,62.1a15.74,15.74,0,0,1-4.15,1.77V73H44.33V63.9a15.11,15.11,0,0,1-4.2-1.75L33.7,68.58l-5.33-5.33,6.45-6.46a16.19,16.19,0,0,1-1.74-4.17H24V45.08h9a15.07,15.07,0,0,1,1.78-4.21l-6.42-6.42,5.33-5.33,6.45,6.45a15.58,15.58,0,0,1,4.18-1.76V24.72h7.54v9.09A15.67,15.67,0,0,1,56,35.58l6.47-6.46,5.33,5.33-6.48,6.48a15.55,15.55,0,0,1,1.75,4.15h9.13Z"/></g></g></g></svg>