<svg xmlns="http://www.w3.org/2000/svg" xmlns:xlink="http://www.w3.org/1999/xlink" viewBox="0 0 96 96"><defs><style>.cls-1{fill:url(#新規グラデーションスウォッチ_13);}.cls-2{fill:url(#新規グラデーションスウォッチ_13-2);}.cls-3{fill:url(#新規グラデーションスウォッチ_13-3);}</style><linearGradient id="新規グラデーションスウォッチ_13" y1="48" x2="96" y2="48" gradientUnits="userSpaceOnUse"><stop offset="0.01" stop-color="#cce700"/><stop offset="1" stop-color="#d4fd9e"/></linearGradient><linearGradient id="新規グラデーションスウォッチ_13-2" x1="24.99" y1="48.54" x2="71.21" y2="48.54" xlink:href="#新規グラデーションスウォッチ_13"/><linearGradient id="新規グラデーションスウォッチ_13-3" x1="8.27" y1="47.63" x2="87.57" y2="47.63" xlink:href="#新規グラデーションスウォッチ_13"/></defs><title>アセット 922</title><g id="レイヤー_2" data-name="レイヤー 2"><g id="メインメニュー"><g id="main_番組表_セレクト"><path class="cls-1" d="M48,0A48,48,0,1,0,96,48,48,48,0,0,0,48,0Zm0,93.66A45.66,45.66,0,1,1,93.66,48,45.66,45.66,0,0,1,48,93.66Z"/><path class="cls-2" d="M71.21,32.58H25V64.51H71.21ZM40.4,59.71H31.3V53.43h9.1Zm0-8.56H31.3V44.87h9.1Zm0-9H31.3V37.29h9.1ZM52.89,59.5h-9.1V49.36h9.1Zm0-13.81h-9.1V37.48h9.1ZM65.38,59.87H56.27V56.49h9.11Zm0-5.35H56.27V51.13h9.11Zm0-6.28H56.27V37.61h9.11Z"/><path class="cls-3" d="M47.92,8A39.66,39.66,0,1,0,87.57,47.63,39.65,39.65,0,0,0,47.92,8ZM74.46,67.83H21.74V29.26H74.46Z"/></g></g></g></svg>