<svg xmlns="http://www.w3.org/2000/svg" viewBox="0 0 96 96"><defs><style>.cls-1{fill:#333;opacity:0.5;}.cls-2{fill:#999;}</style></defs><title>アセット 906</title><g id="レイヤー_2" data-name="レイヤー 2"><g id="メインメニュー"><g id="main_録画番組B"><path class="cls-1" d="M48,0A48,48,0,1,0,96,48,48,48,0,0,0,48,0Z"/><path class="cls-2" d="M26.65,52.33H48.36v-4H26.65Z"/><path class="cls-2" d="M26.66,39V43H48.33V39Z"/><path class="cls-2" d="M20.19,38.21a2.43,2.43,0,1,0,2.36,2.43A2.42,2.42,0,0,0,20.19,38.21Z"/><path class="cls-2" d="M20.15,28.91a2.41,2.41,0,1,0,2.4,2.39A2.4,2.4,0,0,0,20.15,28.91Z"/><path class="cls-2" d="M26.66,33.7H48.37v-4H26.66Z"/><path class="cls-2" d="M20.14,47.55A2.43,2.43,0,0,0,17.75,50a2.4,2.4,0,1,0,2.39-2.4Z"/><path class="cls-2" d="M55.4,70.39,79.2,56.83,55.4,43.26Z"/></g></g></g></svg>