<svg xmlns="http://www.w3.org/2000/svg" viewBox="0 0 68 56"><defs><style>.cls-1{fill:none;}.cls-2{fill:#ededed;}.cls-3{fill:#f8bf25;}</style></defs><title>アセット 992</title><g id="レイヤー_2" data-name="レイヤー 2"><g id="_追加_赤枠新規_" data-name="※※※追加※※※（赤枠新規）"><g id="データ放送_ガイド" data-name="データ放送+ガイド"><rect class="cls-1" width="68" height="56"/><path id="_" data-name="ｄ" class="cls-2" d="M49.56,20.21h-9l-2.46,9a4.69,4.69,0,0,0-1.8-.78,14.44,14.44,0,0,0-3-.23,11.77,11.77,0,0,0-5.92,1.51,12.36,12.36,0,0,0-4.38,4.19,20.51,20.51,0,0,0-1.64,3.3A38.93,38.93,0,0,0,20,41.52c-.34,1.25-.63,2.53-.89,3.84s-.44,2.5-.55,3.56A6,6,0,0,0,20,54.13C21.32,55.37,23.23,56,25.77,56A20.75,20.75,0,0,0,29,55.78a11.09,11.09,0,0,0,3-1.06l.44,1.05h8.91l-.9-2.16ZM32.12,51.43a3.12,3.12,0,0,1-1.11.43,10.62,10.62,0,0,1-1.59.09,2.31,2.31,0,0,1-1.73-.52,2.24,2.24,0,0,1-.36-1.78c.12-.85.34-2,.67-3.52s.71-3,1.12-4.53c.14-.53.43-1.46.86-2.8s.85-2.56,1.28-3.66a4.19,4.19,0,0,1,1.43-2,4.18,4.18,0,0,1,2.36-.59,4.44,4.44,0,0,1,1,.11,10.29,10.29,0,0,1,1.08.29Z"/><rect class="cls-3" x="18.44" width="31.11" height="7" rx="1.56"/></g></g></g></svg>