<svg xmlns="http://www.w3.org/2000/svg" viewBox="0 0 68.66 41.71"><defs><style>.cls-1{fill:#fff;}</style></defs><title>アセット 159</title><g id="レイヤー_2" data-name="レイヤー 2"><g id="視聴画面"><g id="視聴設定"><path class="cls-1" d="M30,35.74l-.37-.37H5.18V13H29.61l.44-.44,4.81-4.81H27.06l5.23-5.23L29.81,0,22.26,7.55l.09.09-.07.07,0,0,0,0-.07-.07.09-.09L14.7,0,12.22,2.48l5.23,5.23H0v32.9H34.92Z"/><path class="cls-1" d="M51.88,27.66a3.93,3.93,0,0,1-.73.15l-.41,0h-.41l-.23,0-.17,0-.14,0-.24-.06-.06,0-.31-.12h0a4,4,0,0,1-1-.6l0,0A4.09,4.09,0,0,1,47,25.33a4.16,4.16,0,0,1-.31-1.56,4.05,4.05,0,0,1,4-4h.41l.16,0,.23,0,.15,0,.24.06.13,0,.24.09.12.06.23.11.1.06.23.14.1.07.21.16.08.07.21.19.11.12.15.17.1.14.13.18.11.19.09.15.11.23.06.12a4.06,4.06,0,0,1,.21.67l0,.09c0,.06,0,.11,0,.17a3.92,3.92,0,0,1-2.85,4.46Z"/><path class="cls-1" d="M61.69,27.42q.14-.4.24-.81h6.72V21H61.89c0-.14-.08-.27-.12-.4a11.72,11.72,0,0,0-1.18-2.67l4.81-4.81-1.32-1.32L61.43,9.17,56.64,14q-.36-.22-.73-.41a11.32,11.32,0,0,0-2.36-.9V5.9H48v6.75a11.54,11.54,0,0,0-2.37.89l-.11.06-.63.35-1.78-1.78L42.9,12,40.43,9.53l-.36-.36-.36.36L37.25,12l-1.13,1.13,2.43,2.43.05.05.24.24,2,2a11.2,11.2,0,0,0-1.16,2.57c-.06.18-.11.36-.16.55H32.85V26.6h6.76a12.47,12.47,0,0,0,1.29,3.1L38.6,32l0,0,0,0-2.39,2.39,1.19,1.19,2.46,2.46.3.3.3-.3.89-.89,1.57-1.57.24-.24h0l1.77-1.77c.21.13.42.24.64.36l.09.05a11.28,11.28,0,0,0,1.56.65q.4.13.82.24v6.73h5.59V34.95a11.53,11.53,0,0,0,2-.72,11.9,11.9,0,0,0,1.11-.59l4.8,4.8,2.64-2.64,1.32-1.32L63,32.09,60.61,29.7a11.4,11.4,0,0,0,.78-1.5Q61.55,27.82,61.69,27.42Zm-11,5.38h0l-.49,0-.42,0-.5-.08-.38-.06c-.22,0-.43-.11-.64-.17l-.22-.06c-.25-.08-.5-.17-.74-.27l-.08,0a8.89,8.89,0,0,1-1.76-1,9.09,9.09,0,0,1-2.41-2.65,9.23,9.23,0,0,1-1.32-4.7A8.33,8.33,0,0,1,41.94,22a8.58,8.58,0,0,1,.53-1.65,8.89,8.89,0,0,1,.61-1.15c.08-.12.14-.25.22-.36a9.21,9.21,0,0,1,1.11-1.32c.17-.16.34-.32.52-.47s.37-.29.56-.43.38-.26.57-.39a8.9,8.9,0,0,1,4.69-1.36l.52,0,.39,0c.2,0,.4.06.6.09l.28,0c.23,0,.45.11.68.18l.18,0c.24.08.48.17.72.27l.11,0,.59.28a9.19,9.19,0,0,1,4.93,8.08,8.32,8.32,0,0,1-.41,2.6,9.26,9.26,0,0,1-6.82,6.11A8.7,8.7,0,0,1,50.73,32.79Z"/></g></g></g></svg>