<svg xmlns="http://www.w3.org/2000/svg" xmlns:xlink="http://www.w3.org/1999/xlink" viewBox="0 0 96 96"><defs><style>.cls-1{fill:url(#新規グラデーションスウォッチ_13);}.cls-2{fill:url(#新規グラデーションスウォッチ_13-2);}</style><linearGradient id="新規グラデーションスウォッチ_13" y1="48" x2="96" y2="48" gradientUnits="userSpaceOnUse"><stop offset="0.01" stop-color="#cce700"/><stop offset="1" stop-color="#d4fd9e"/></linearGradient><linearGradient id="新規グラデーションスウォッチ_13-2" x1="8.27" y1="47.63" x2="87.57" y2="47.63" xlink:href="#新規グラデーションスウォッチ_13"/></defs><title>アセット 920</title><g id="レイヤー_2" data-name="レイヤー 2"><g id="メインメニュー"><g id="main_録画番組_セレクト"><path class="cls-1" d="M48,0A48,48,0,1,0,96,48,48,48,0,0,0,48,0Zm0,93.66A45.66,45.66,0,1,1,93.66,48,45.66,45.66,0,0,1,48,93.66Z"/><path class="cls-2" d="M47.92,8A39.66,39.66,0,1,0,87.57,47.63,39.65,39.65,0,0,0,47.92,8ZM20.1,52.42A2.41,2.41,0,0,1,17.75,50a2.4,2.4,0,1,1,4.8.05A2.38,2.38,0,0,1,20.1,52.42Zm.08-9.32a2.43,2.43,0,1,1,0-4.85,2.43,2.43,0,0,1,0,4.85Zm0-9.34a2.41,2.41,0,1,1,2.36-2.43A2.42,2.42,0,0,1,20.19,33.76Zm28.17,18.6H26.65v-4H48.36Zm-21.7-9.29V39H48.33v4.07Zm21.71-9.34H26.66v-4H48.37Zm7,36.69V43.29L79.2,56.86Z"/></g></g></g></svg>