<svg xmlns="http://www.w3.org/2000/svg" xmlns:xlink="http://www.w3.org/1999/xlink" viewBox="0 0 96 96"><defs><style>.cls-1{fill:url(#新規グラデーションスウォッチ_13);}.cls-2{fill:url(#新規グラデーションスウォッチ_13-2);}.cls-3{fill:url(#新規グラデーションスウォッチ_13-3);}</style><linearGradient id="新規グラデーションスウォッチ_13" y1="48" x2="96" y2="48" gradientUnits="userSpaceOnUse"><stop offset="0.01" stop-color="#cce700"/><stop offset="1" stop-color="#d4fd9e"/></linearGradient><linearGradient id="新規グラデーションスウォッチ_13-2" x1="55.99" y1="53.81" x2="79.34" y2="53.81" xlink:href="#新規グラデーションスウォッチ_13"/><linearGradient id="新規グラデーションスウォッチ_13-3" x1="8.27" y1="47.63" x2="87.57" y2="47.63" xlink:href="#新規グラデーションスウォッチ_13"/></defs><title>アセット 919</title><g id="レイヤー_2" data-name="レイヤー 2"><g id="メインメニュー"><g id="main_予約一覧_セレクト"><path class="cls-1" d="M48,0A48,48,0,1,0,96,48,48,48,0,0,0,48,0Zm0,93.66A45.66,45.66,0,1,1,93.66,48,45.66,45.66,0,0,1,48,93.66Z"/><path class="cls-2" d="M67.66,42.2A11.62,11.62,0,1,0,79.34,53.81,11.64,11.64,0,0,0,67.66,42.2ZM76,55.83H65.65V45.51H69v7H76Z"/><path class="cls-3" d="M47.92,8A39.66,39.66,0,1,0,87.57,47.63,39.65,39.65,0,0,0,47.92,8ZM20.59,52.47A2.39,2.39,0,0,1,18.25,50a2.4,2.4,0,1,1,4.8,0A2.39,2.39,0,0,1,20.59,52.47Zm.09-9.32a2.43,2.43,0,1,1,2.37-2.42A2.42,2.42,0,0,1,20.68,43.15Zm0-9.34a2.41,2.41,0,1,1,2.37-2.43A2.41,2.41,0,0,1,20.68,33.81Zm28.18,18.6H27.14v-4H48.86Zm-21.7-9.29V39.05H48.83v4.07Zm21.7-9.34H27.16v-4h21.7ZM67.67,68.71a14.9,14.9,0,1,1,14.9-16.37v2.95A14.94,14.94,0,0,1,67.67,68.71Z"/></g></g></g></svg>