<svg xmlns="http://www.w3.org/2000/svg" viewBox="0 0 54.84 55.01"><defs><style>.cls-1{fill:#ededed;}</style></defs><title>アセット 437</title><g id="レイヤー_2" data-name="レイヤー 2"><g id="設定画面"><g id="機器設定"><path class="cls-1" d="M54.45,11.63c-.09-.43-.27-.85-.46-1.45-.42.39-.7.64-1,.91-2.08,2.07-4.13,4.16-6.26,6.19a2.28,2.28,0,0,1-1.57.56c-2.1-.23-4.17-.59-6.26-.89a1,1,0,0,1-1-1A23.1,23.1,0,0,0,37.33,12c-.69-2.27,0-3.85,1.77-5.37,2-1.69,3.74-3.72,5.71-5.71L41.25,0h-3c-.83.21-1.66.39-2.48.62A15.15,15.15,0,0,0,25.1,19.05a1.68,1.68,0,0,1-.5,1.87Q14.92,30.53,5.29,40.19C3.24,42.25.88,44.08,0,47.06V49.2A6.46,6.46,0,0,1,.34,50a6.62,6.62,0,0,0,5.29,4.86A2,2,0,0,1,6,55h1.5c2.29-.37,3.87-1.82,5.43-3.39,7-7,14-14,21-21A1.87,1.87,0,0,1,36.14,30a9.4,9.4,0,0,0,2.42.44C48.75,31,56.71,22.27,54.45,11.63Zm-46.23,38a3,3,0,0,1-2.91-2.83A2.9,2.9,0,0,1,8.2,43.91a2.86,2.86,0,0,1,3,2.84A3,3,0,0,1,8.22,49.66Z"/></g></g></g></svg>