<svg xmlns="http://www.w3.org/2000/svg" viewBox="0 0 30.96 51.13"><defs><style>.cls-1{fill:#ededed;}</style></defs><title>アセット 440</title><g id="レイヤー_2" data-name="レイヤー 2"><g id="設定画面"><g id="ヘルプ"><path class="cls-1" d="M20.49,36.46H11.28a11.26,11.26,0,0,1,2.13-8.89c1.92-2.83,4.24-5.39,6.1-8.26a11.1,11.1,0,0,0,1.89-5.18,5.53,5.53,0,0,0-5.31-5.62c-3.49-.28-5.63,1.16-6.53,4.43L9.11,14.5H0A13.3,13.3,0,0,1,5.91,2.81a17.32,17.32,0,0,1,19,0A13.71,13.71,0,0,1,29.14,21a88.3,88.3,0,0,1-5.53,7.86C22,31.1,20.09,33.2,20.49,36.46Z"/><path class="cls-1" d="M20.68,51.13h-9.9V41.62c3,0,5.88,0,8.77.06a1.63,1.63,0,0,1,1.08,1.19C20.73,45.55,20.68,48.23,20.68,51.13Z"/></g></g></g></svg>