<svg xmlns="http://www.w3.org/2000/svg" viewBox="0 0 59.76 60.09"><defs><style>.cls-1{fill:#ededed;}</style></defs><title>アセット 780</title><g id="レイヤー_2" data-name="レイヤー 2"><g id="視聴_" data-name="視聴★"><g id="データ放送操作"><polygon class="cls-1" points="19.42 12.93 26.4 0.83 33.38 12.93 19.42 12.93"/><path class="cls-1" d="M26.4,1.66l6.26,10.85H20.14L26.4,1.66M26.4,0,18.7,13.34H34.1L26.4,0Z"/><polygon class="cls-1" points="19.42 39.87 33.38 39.87 26.4 51.97 19.42 39.87"/><path class="cls-1" d="M32.66,40.29,26.4,51.14,20.14,40.29H32.66m1.44-.83H18.7L26.4,52.8l7.7-13.34Z"/><polygon class="cls-1" points="0.83 26.24 12.92 19.26 12.92 33.22 0.83 26.24"/><path class="cls-1" d="M12.51,20V32.5L1.66,26.24,12.51,20m.83-1.44L0,26.24l13.34,7.7V18.54Z"/><polygon class="cls-1" points="39.87 19.26 51.97 26.24 39.87 33.22 39.87 19.26"/><path class="cls-1" d="M40.29,20l10.85,6.26L40.29,32.5V20m-.83-1.44v15.4l13.34-7.7-13.34-7.7Z"/><path id="_" data-name="ｄ" class="cls-1" d="M59.76,35.59H53.54l-1.7,6.18a3.32,3.32,0,0,0-1.25-.54,10.93,10.93,0,0,0-2.08-.16,8.29,8.29,0,0,0-4.11,1,8.61,8.61,0,0,0-3,2.87,13.41,13.41,0,0,0-1.13,2.26,24.43,24.43,0,0,0-1,2.94c-.23.86-.44,1.73-.62,2.63s-.3,1.71-.38,2.44a4,4,0,0,0,1.07,3.56,5.52,5.52,0,0,0,4,1.28,14,14,0,0,0,2.25-.15,7.54,7.54,0,0,0,2.09-.72l.31.72h6.19l-.63-1.48ZM47.66,57a2.05,2.05,0,0,1-.77.3,7.69,7.69,0,0,1-1.11.06A1.58,1.58,0,0,1,44.59,57a1.48,1.48,0,0,1-.26-1.21c.08-.59.24-1.39.47-2.42s.49-2.06.78-3.1c.09-.36.29-1,.59-1.91s.59-1.75.89-2.51a2.89,2.89,0,0,1,1-1.36,2.94,2.94,0,0,1,1.65-.4,3.37,3.37,0,0,1,.69.07c.23.05.49.12.75.2Z"/></g></g></g></svg>