<svg xmlns="http://www.w3.org/2000/svg" viewBox="0 0 40 45.37"><defs><style>.cls-1{fill:#ededed;}</style></defs><title>アセット 589</title><g id="レイヤー_2" data-name="レイヤー 2"><g id="視聴"><g id="データ放送セレクト"><path id="_" data-name="ｄ" class="cls-1" d="M40,0H28.48L25.33,11.43a6.41,6.41,0,0,0-2.33-1,18.78,18.78,0,0,0-3.84-.3,15.31,15.31,0,0,0-7.61,1.92,15.92,15.92,0,0,0-5.63,5.32,25,25,0,0,0-2.1,4.18A47.43,47.43,0,0,0,1.94,27C1.5,28.6,1.12,30.22.79,31.89S.22,35.05.08,36.4c-.32,2.82.34,5,2,6.6s4.1,2.37,7.36,2.37a26.93,26.93,0,0,0,4.17-.27,14.37,14.37,0,0,0,3.87-1.35L18,45.08H29.49l-1.16-2.73ZM17.58,39.58a4.07,4.07,0,0,1-1.42.54,12.1,12.1,0,0,1-2.05.12,3,3,0,0,1-2.22-.66,2.8,2.8,0,0,1-.47-2.25c.15-1.09.45-2.58.87-4.47s.91-3.82,1.44-5.74c.18-.67.55-1.85,1.1-3.55s1.1-3.24,1.65-4.64a5.23,5.23,0,0,1,1.84-2.53,5.49,5.49,0,0,1,3-.74,6.37,6.37,0,0,1,1.27.13c.45.1.92.22,1.4.37Z"/></g></g></g></svg>