<svg xmlns="http://www.w3.org/2000/svg" viewBox="0 0 96 96"><defs><style>.cls-1{fill:#333;opacity:0.5;}.cls-2{fill:#999;}</style></defs><title>アセット 905</title><g id="レイヤー_2" data-name="レイヤー 2"><g id="メインメニュー"><g id="main_予約一覧B"><path class="cls-1" d="M48,0A48,48,0,1,0,96,48,48,48,0,0,0,48,0Z"/><path class="cls-2" d="M27.14,52.38H48.86v-4H27.14Z"/><path class="cls-2" d="M27.16,39v4.07H48.83V39Z"/><path class="cls-2" d="M20.69,38.27a2.43,2.43,0,1,0,0,4.85,2.43,2.43,0,0,0,2.37-2.43A2.4,2.4,0,0,0,20.69,38.27Z"/><path class="cls-2" d="M20.65,29a2.41,2.41,0,1,0,2.4,2.39A2.43,2.43,0,0,0,20.65,29Z"/><path class="cls-2" d="M27.16,33.75h21.7v-4H27.16Z"/><path class="cls-2" d="M20.64,47.6a2.42,2.42,0,0,0-.05,4.84,2.39,2.39,0,0,0,2.46-2.39A2.42,2.42,0,0,0,20.64,47.6Z"/><path class="cls-2" d="M67.67,38.89a14.9,14.9,0,1,0,14.9,16.37V52.31A15,15,0,0,0,67.67,38.89Zm0,26.51A11.62,11.62,0,1,1,79.34,53.78,11.65,11.65,0,0,1,67.66,65.4Z"/><path class="cls-2" d="M65.65,55.79V45.48H69v7H76v3.3Z"/></g></g></g></svg>