<svg xmlns="http://www.w3.org/2000/svg" viewBox="0 0 101.94 36"><defs><style>.cls-1{fill:#f2913b;}.cls-2{fill:#fff;}</style></defs><title>アセット 684</title><g id="レイヤー_2" data-name="レイヤー 2"><g id="状態ラベル"><g id="イチオシ"><rect class="cls-1" width="101.94" height="36"/><g id="mac_font" data-name="mac　font"><path class="cls-2" d="M26.57,9.91a9,9,0,0,0-1.07.87A53.47,53.47,0,0,1,19,15.72l-1.68,9.54a31.86,31.86,0,0,0-.51,3.58h-4a25.54,25.54,0,0,0,.76-3.51L14.84,18a50.47,50.47,0,0,1-8.93,3.76,9.84,9.84,0,0,0-1.38-3.3,43.48,43.48,0,0,0,13.85-6.3,24.27,24.27,0,0,0,5.27-4.48Z"/><path class="cls-2" d="M47.28,10.51c-.56.15-.56.15-1.4.41a34.48,34.48,0,0,1-5,1.21c-.39,2.09-.55,2.89-.72,3.69h4.5a22.32,22.32,0,0,0,3.47-.17l-.61,3.41a32.45,32.45,0,0,0-3.34-.12H39.43a14.73,14.73,0,0,1-2.54,5.21A16.36,16.36,0,0,1,32.24,28a20.69,20.69,0,0,1-2.51,1.21,7.44,7.44,0,0,0-2-3.07,15.25,15.25,0,0,0,4.07-1.94,8.87,8.87,0,0,0,4-5.28h-5.3c-1.62,0-2.5,0-3.46.12l.6-3.41a21.34,21.34,0,0,0,3.46.17h5.56c.14-.63.38-1.87.54-2.77l.07-.41c-2,.24-3,.32-6.64.49A10,10,0,0,0,30.08,10c.77,0,1.17.05,1.54.05A47.27,47.27,0,0,0,42.3,8.7a15.45,15.45,0,0,0,3.21-1.14Z"/><path class="cls-2" d="M63,19.62c0-.22.16-.92.41-2.06a29.33,29.33,0,0,1-4.07,4.12,39.59,39.59,0,0,1-8,5.18,7.44,7.44,0,0,0-1.88-3.05,31.33,31.33,0,0,0,8.24-5A24.46,24.46,0,0,0,61.45,15l-5.69,0a32.92,32.92,0,0,0-3.43.12L53,11.65a22.06,22.06,0,0,0,3.45.17l7.87,0,.2-1.29a18.67,18.67,0,0,0,.37-2.76h3.8c-.18.7-.28,1.16-.4,1.82,0,.14-.08.46-.16.92l-.21,1.33h1.74a17.56,17.56,0,0,0,3.44-.17l-.61,3.51c-.84-.07-2-.12-3.32-.12H67.33L65.59,25.58a28,28,0,0,0-.42,3.36H61.25a21.52,21.52,0,0,0,.64-2.81c0-.17.06-.34.09-.53l1-5.64Z"/><path class="cls-2" d="M75.56,24.7A23.88,23.88,0,0,0,83,23.1a18.39,18.39,0,0,0,7.81-5.27,23,23,0,0,0,3.7-5.35A9.53,9.53,0,0,0,97.12,15a27.54,27.54,0,0,1-4.8,6.23C88.46,25,84.08,27,77.67,28.19a18.26,18.26,0,0,0-1.79.41ZM78.76,14a26.88,26.88,0,0,1,6,3.37l-2.33,3.24a21.28,21.28,0,0,0-6.08-3.65Zm2.87-5.88a31.06,31.06,0,0,1,6.13,3.14l-2.4,3.15A24.11,24.11,0,0,0,79.28,11Z"/></g></g></g></g></svg>