<svg xmlns="http://www.w3.org/2000/svg" viewBox="0 0 48 48"><defs><style>.cls-1{fill:#1d1a88;}.cls-2{fill:#ededed;}</style></defs><title>アセット 580</title><g id="レイヤー_2" data-name="レイヤー 2"><g id="状態ラベル"><g id="保護"><circle class="cls-1" cx="24" cy="24" r="24"/><path class="cls-2" d="M34.67,19.62v-.89a10.53,10.53,0,0,0-21.05,0v.89h-2V37.11h25V19.62Zm-9,8.29a1.48,1.48,0,0,0-.5,1.33c.05.81,0,1.64,0,2.45a1.16,1.16,0,1,1-2.32,0c0-.51,0-1,0-1.54h0a6.59,6.59,0,0,1,0-.77,1.68,1.68,0,0,0-.56-1.58,2.23,2.23,0,0,1,.18-3.2,2.28,2.28,0,0,1,3.17.08A2.23,2.23,0,0,1,25.63,27.91Zm5.1-8.29H17.57v-.89A6.53,6.53,0,0,1,20,13.66a6,6,0,0,1,.77-.55,6.2,6.2,0,0,1,.85-.44,5.84,5.84,0,0,1,1.23-.38,6.45,6.45,0,0,1,1.33-.14,6.45,6.45,0,0,1,3.67,1.13,6.23,6.23,0,0,1,1,.8,6.85,6.85,0,0,1,.8,1,6.53,6.53,0,0,1,1.13,3.67Z"/></g></g></g></svg>