<svg xmlns="http://www.w3.org/2000/svg" viewBox="0 0 25.22 30.07"><defs><style>.cls-1{fill:#ededed;}</style></defs><title>アセット 537</title><g id="レイヤー_2" data-name="レイヤー 2"><g id="状態ラベル"><path class="cls-1" d="M5.25,0A11.86,11.86,0,0,1,6.87.55,4.84,4.84,0,0,1,9.81,5a5.66,5.66,0,0,0,1.37,3.62c3.81,4.55,7.6,9.12,11.42,13.66a8.81,8.81,0,0,1,2,4.5,3,3,0,0,1-1.34,3.29H23.1L13.81,19C11.74,16.5,9.66,14,7.62,11.54A6.79,6.79,0,0,0,3.93,9.21C.6,8.37-1,4.82.67,2.14A4.39,4.39,0,0,1,3.6.13C3.74.1,3.87,0,4,0Zm-.2,7.65A2.82,2.82,0,0,0,8,4.93,3.24,3.24,0,0,0,4.78,1.76,2.8,2.8,0,0,0,1.84,4.55,3.17,3.17,0,0,0,5.05,7.65Zm7.54,5.14a1.08,1.08,0,0,0-1.1,1,1.13,1.13,0,0,0,2.25,0A1.08,1.08,0,0,0,12.59,12.79Z"/><path class="cls-1" d="M2,30.07A3.06,3.06,0,0,1,.66,26.84,12.32,12.32,0,0,1,.9,25.63a8.29,8.29,0,0,1,1.65-3.25c1.7-2,3.37-4,5.05-6,.11-.14.24-.27.42-.47l3,3.59L2.13,30.07Z"/><path class="cls-1" d="M21.23,0c.21.06.42.13.64.18a4.43,4.43,0,0,1,2.44,7,5.17,5.17,0,0,1-2.66,1.94C19,10,19,10,17.21,12l-3-3.58a5.94,5.94,0,0,0,1.21-3.6A5,5,0,0,1,19.71.12,1.59,1.59,0,0,0,20,0Zm2.16,4.57a2.79,2.79,0,0,0-2.92-2.81,3.23,3.23,0,0,0-3.25,3.09,2.82,2.82,0,0,0,2.94,2.8A3.16,3.16,0,0,0,23.39,4.57Z"/></g></g></svg>