<svg xmlns="http://www.w3.org/2000/svg" viewBox="0 0 24.22 28"><defs><style>.cls-1{fill:#ededed;}</style></defs><title>アセット 542</title><g id="レイヤー_2" data-name="レイヤー 2"><g id="状態ラベル"><path class="cls-1" d="M22.31,11.06V10.2a10.2,10.2,0,0,0-20.4,0v.86H0V28H24.22V11.06Zm-8.76,8a1.44,1.44,0,0,0-.49,1.29,23.42,23.42,0,0,1,0,2.37,1.13,1.13,0,1,1-2.25,0c0-.49,0-1,0-1.49h0a6.26,6.26,0,0,1,0-.75A1.67,1.67,0,0,0,10.26,19a2.17,2.17,0,0,1,.18-3.1,2.21,2.21,0,0,1,3.07.08A2.17,2.17,0,0,1,13.55,19.09Zm4.93-8H5.74V10.2A6.36,6.36,0,0,1,8.06,5.28a5.92,5.92,0,0,1,.75-.53,6.34,6.34,0,0,1,.82-.42,4.13,4.13,0,0,1,.45-.17h0c.12-.28.24-.6.36-.85s.26-.46.39-.48c-.13,0-.26.22-.39.48s-.24.57-.36.85q.36-.12.75-.21a6.69,6.69,0,0,1,1.28-.13A6.26,6.26,0,0,1,13.68,4c-.5-.62-1-1.33-1.57-1.33h0c.54,0,1.07.71,1.57,1.33a5.7,5.7,0,0,1,.91.3,7,7,0,0,1,1.08.58,5.9,5.9,0,0,1,.94.78,6.46,6.46,0,0,1,.78.95,6.3,6.3,0,0,1,1.09,3.56Z"/></g></g></svg>