<svg xmlns="http://www.w3.org/2000/svg" viewBox="0 0 36.84 36.84"><defs><style>.cls-1{fill:#f2913b;}.cls-2{fill:#fff;}</style></defs><title>アセット 685</title><g id="レイヤー_2" data-name="レイヤー 2"><g id="状態ラベル"><g id="イチオシ"><circle class="cls-1" cx="18.42" cy="18.42" r="18.42"/><path class="cls-2" d="M17.49,6.81a6.49,6.49,0,0,0-.58.47,28.05,28.05,0,0,1-3.52,2.66l-.9,5.14A16.59,16.59,0,0,0,12.21,17H10.06a12.68,12.68,0,0,0,.41-1.89l.7-4a26.27,26.27,0,0,1-4.81,2,5.32,5.32,0,0,0-.74-1.77A23.57,23.57,0,0,0,13.08,8a13.25,13.25,0,0,0,2.84-2.42Z"/><path class="cls-2" d="M29.86,7.13c-.3.08-.3.08-.75.23A21.18,21.18,0,0,1,26.44,8c-.21,1.12-.3,1.55-.39,2h2.42a11.51,11.51,0,0,0,1.87-.09L30,11.74a16.67,16.67,0,0,0-1.8-.07H25.63a8.09,8.09,0,0,1-1.36,2.81,8.82,8.82,0,0,1-2.51,2.09,12.46,12.46,0,0,1-1.35.65,4.08,4.08,0,0,0-1.08-1.66,8,8,0,0,0,2.19-1,4.72,4.72,0,0,0,2.13-2.85H20.8a17.69,17.69,0,0,0-1.86.07l.32-1.84a11,11,0,0,0,1.86.09h3c.07-.34.2-1,.29-1.49l0-.22c-1.07.13-1.61.17-3.58.26a5.23,5.23,0,0,0-.28-1.68l.83,0a25.13,25.13,0,0,0,5.76-.74,8.35,8.35,0,0,0,1.73-.61Z"/><path class="cls-2" d="M13,26c0-.12.08-.49.22-1.11a15.31,15.31,0,0,1-2.19,2.22,21.23,21.23,0,0,1-4.32,2.79,4.05,4.05,0,0,0-1-1.64,16.92,16.92,0,0,0,4.44-2.7,13.08,13.08,0,0,0,2-2l-3.07,0a17.47,17.47,0,0,0-1.84.06l.33-1.89a12,12,0,0,0,1.86.09h4.24l.11-.7a11.11,11.11,0,0,0,.2-1.48h2c-.09.38-.15.62-.21,1,0,.07,0,.24-.09.49l-.11.72h.94a9.58,9.58,0,0,0,1.85-.09l-.33,1.89c-.45,0-1.05-.06-1.79-.06h-1l-.94,5.67A15.45,15.45,0,0,0,14.21,31H12.1a11,11,0,0,0,.34-1.52c0-.09,0-.18.06-.29l.5-3Z"/><path class="cls-2" d="M19.81,28.71a12.88,12.88,0,0,0,4-.86A9.94,9.94,0,0,0,28.05,25a12.36,12.36,0,0,0,2-2.89,5.35,5.35,0,0,0,1.39,1.39,15,15,0,0,1-2.59,3.35A14.42,14.42,0,0,1,21,30.59a8.5,8.5,0,0,0-1,.22Zm1.72-5.79a14,14,0,0,1,3.23,1.81L23.5,26.48a11.4,11.4,0,0,0-3.28-2Zm1.55-3.17a16.68,16.68,0,0,1,3.3,1.69l-1.29,1.7a13,13,0,0,0-3.27-1.83Z"/></g></g></g></svg>