<svg xmlns="http://www.w3.org/2000/svg" viewBox="0 0 74 36"><defs><style>.cls-1{fill:#c646c8;}.cls-2{fill:#fff;}</style></defs><title>アセット 866</title><g id="レイヤー_2" data-name="レイヤー 2"><g id="状態ラベル"><g id="NEW_番組詳細"><rect class="cls-1" width="74" height="36"/><path class="cls-2" d="M23.56,28.49h-4L14.12,14.82,11.26,28.49H7.34L11.59,8.13H15.5L21,21.75,23.82,8.13H27.7Z"/><path class="cls-2" d="M42.16,22.35H32.1v.37a3.42,3.42,0,0,0,.83,2.34A2.76,2.76,0,0,0,35,26a3.44,3.44,0,0,0,3.1-2l3.56.6a7.42,7.42,0,0,1-2.78,3.29A7.34,7.34,0,0,1,35,28.94a6.49,6.49,0,0,1-4.84-2,6.8,6.8,0,0,1-1.86-5A9,9,0,0,1,30,16.59a7.56,7.56,0,0,1,6.56-3.2,5.65,5.65,0,0,1,4.31,1.68,6.52,6.52,0,0,1,1.6,4.68A10.78,10.78,0,0,1,42.16,22.35ZM38.8,19.93v-.41a3.53,3.53,0,0,0-.74-2.46,2.51,2.51,0,0,0-2-.82,3.11,3.11,0,0,0-2.19.93,4.92,4.92,0,0,0-1.33,2.74Z"/><path class="cls-2" d="M60,28.49H56.23l-.72-9.39L51,28.49h-3.7L45.47,13.74H49l1,9.85,4.59-9.85h3.63l.5,9.85,4.57-9.85h4Z"/></g></g></g></svg>