<svg xmlns="http://www.w3.org/2000/svg" viewBox="0 0 36.84 36.84"><defs><style>.cls-1{fill:#9661de;}.cls-2{fill:#fff;}</style></defs><title>アセット 816</title><g id="レイヤー_2" data-name="レイヤー 2"><g id="視聴_" data-name="視聴★"><g id="オススメ_仮_" data-name="オススメ（仮）"><circle class="cls-1" cx="18.42" cy="18.42" r="18.42"/><path class="cls-2" d="M13.12,11.22A16.34,16.34,0,0,1,10,14a20.25,20.25,0,0,1-4.27,2.31l-.57-1.53a18.83,18.83,0,0,0,4-2.32,18.54,18.54,0,0,0,3.23-2.94H7l.26-1.67h6.43L14,5.54h2l-.37,2.32h2.6L18,9.53h-2.6l-1.16,7.29h-2Z"/><path class="cls-2" d="M30.49,15.57l-1.65,1.37a45.87,45.87,0,0,0-3.72-4,24,24,0,0,1-6.59,4l-.69-1.5a21.94,21.94,0,0,0,5.22-3.07A16.76,16.76,0,0,0,27.17,8H20.73L21,6.29h8.36l.44.5a14.17,14.17,0,0,1-1.46,2.65,18.41,18.41,0,0,1-1.81,2.14Q28.92,13.82,30.49,15.57Z"/><path class="cls-2" d="M19,29.52l-1.65,1.36a47.41,47.41,0,0,0-3.72-4,23.93,23.93,0,0,1-6.59,4l-.69-1.5a21.61,21.61,0,0,0,5.22-3.07,16.61,16.61,0,0,0,4.11-4.45H9.24l.26-1.67h8.36l.44.5a14.9,14.9,0,0,1-1.46,2.66A20.43,20.43,0,0,1,15,25.53Q17.43,27.77,19,29.52Z"/><path class="cls-2" d="M31.59,19.87a17.29,17.29,0,0,1-2.9,5.39,34.13,34.13,0,0,1,2.74,2.49l-1.65,1.53a16.63,16.63,0,0,0-2.47-2.47,15.88,15.88,0,0,1-7,4.05l-.56-1.58a12.79,12.79,0,0,0,3.2-1.41,16.67,16.67,0,0,0,2.95-2.23c-.63-.5-1.84-1.29-3.61-2.39l1.34-1.35a42.24,42.24,0,0,1,3.59,2.24,14.49,14.49,0,0,0,2.41-4.49Z"/></g></g></g></svg>