<svg xmlns="http://www.w3.org/2000/svg" viewBox="0 0 34.52 24.2"><defs><style>.cls-1{fill:#ededed;}</style></defs><title>アセット 579</title><g id="レイヤー_2" data-name="レイヤー 2"><g id="状態ラベル"><path class="cls-1" d="M18.79,19c-1.88-1-3.53-1.88-5-2.66a1.62,1.62,0,0,0-.79-.15h-.17l-.8-.08L12,17a1.28,1.28,0,0,1,0,.19,2.39,2.39,0,0,0,.07.72c0,.14.09.27.15.4H9.88a6.17,6.17,0,0,1-5.94-4.79A6.1,6.1,0,0,1,7.27,6.59,10.72,10.72,0,0,1,9.11,6l1-.27.5-.15V2.21l-.9,0A9.86,9.86,0,0,0,.42,9.39c-.11.39-.2.78-.28,1.18L0,11.18v1.87l.09.26a1.46,1.46,0,0,1,.05.2,9.56,9.56,0,0,0,6.37,7.85A12.93,12.93,0,0,0,9.87,22l.28,0c.36,0,.75,0,1.22,0h.84l-.15.43a2,2,0,0,0,0,.76c0,.06,0,.12,0,.17v.79l.79-.1H13a1.84,1.84,0,0,0,.74-.15c1.71-.89,3.4-1.79,5-2.67a1.65,1.65,0,0,0,.83-1C19.75,19.61,19,19.15,18.79,19Z"/><path class="cls-1" d="M34.43,10.88a1.21,1.21,0,0,1,0-.18A10,10,0,0,0,24.31,2.17h-2c.06-.15.11-.3.16-.45a2,2,0,0,0,0-.76,1,1,0,0,1,0-.17l0-.79-.78.1h-.15a1.84,1.84,0,0,0-.74.15c-1.7.89-3.42,1.79-5.1,2.7a1.53,1.53,0,0,0-.78,1c-.12.67.62,1.1.77,1.18,1.9,1,3.59,1.92,5.15,2.72a1.29,1.29,0,0,0,.61.13h.33l.73,0,0-.74a.71.71,0,0,1,0-.14,2,2,0,0,0-.05-.7l-.18-.5h2.34a6.18,6.18,0,0,1,5.93,4.8,6.08,6.08,0,0,1-3.18,6.8,10.51,10.51,0,0,1-1.94.66c-.35.09-.69.19-1,.3l-.49.15V22h.84a9.79,9.79,0,0,0,9-6.17A15.32,15.32,0,0,0,34.28,14l.21-.82,0-.09V11.15Z"/></g></g></svg>