<svg xmlns="http://www.w3.org/2000/svg" viewBox="0 0 24.3 22.06"><defs><style>.cls-1{fill:#fff000;stroke:#383636;stroke-miterlimit:10;stroke-width:2.7px;}</style></defs><title>アセット 198</title><g id="レイヤー_2" data-name="レイヤー 2"><g id="状態ラベル_" data-name="状態ラベル★"><g id="中断"><path class="cls-1" d="M22.34,16.74Q18.25,9.66,14.16,2.59a2.25,2.25,0,0,0-4,0q-2.5,4.29-5,8.6-1.92,3.33-3.82,6.67V19a8.13,8.13,0,0,0,.49.85,2.37,2.37,0,0,0,2,.9H20.43a2.36,2.36,0,0,0,2.43-1.63s.06-.08.1-.12v-1.1C22.75,17.49,22.55,17.11,22.34,16.74Z"/><path d="M11.29,15.32H13l.49-8.67H10.79Z"/><path d="M11.2,18.94h1.9V17H11.2Z"/></g></g></g></svg>