<svg xmlns="http://www.w3.org/2000/svg" viewBox="0 0 33.16 28"><defs><style>.cls-1{fill:#ededed;}</style></defs><title>アセット 539</title><g id="レイヤー_2" data-name="レイヤー 2"><g id="状態ラベル"><path class="cls-1" d="M0,26.23c1.17-1,2.32-1.71,3.54-2.7A2.3,2.3,0,0,1,4.9,23c9.16,0,14.2,0,23.36,0a2.36,2.36,0,0,1,1.36.52c1.21,1,2.36,1.66,3.54,2.7v1.46a4.33,4.33,0,0,1-1.08.29c-1.84,0-3.69,0-5.53,0-9.8,0-15.46,0-25.25,0A6,6,0,0,1,0,27.69Z"/><path class="cls-1" d="M14.45,20.42H4.83c-1.54,0-2.21-.66-2.22-2.21V2.27C2.62.67,3.28,0,4.88,0H28.25c1.64,0,2.29.66,2.29,2.31q0,7.9,0,15.8c0,1.69-.64,2.31-2.33,2.31Zm-8.91-3H27.59V2.56h-22Z"/></g></g></svg>