<svg xmlns="http://www.w3.org/2000/svg" viewBox="0 0 48 48"><defs><style>.cls-1{fill:#1d1a88;}.cls-2{fill:#ededed;}</style></defs><title>アセット 584</title><g id="レイヤー_2" data-name="レイヤー 2"><g id="状態ラベル"><g id="くり返し"><circle class="cls-1" cx="24" cy="24" r="24"/><path class="cls-2" d="M26.32,32.23c-2.23-1.2-4.19-2.23-6-3.16a1.94,1.94,0,0,0-.95-.18h-.19l-1-.09,0,1a1.62,1.62,0,0,1,0,.22,2.74,2.74,0,0,0,.09.86c0,.16.1.32.16.47H15.74a7.29,7.29,0,0,1-3.1-13.86,13.38,13.38,0,0,1,2.19-.7c.39-.1.78-.2,1.17-.32l.6-.18v-4l-1.08,0a11.7,11.7,0,0,0-11,8.54c-.13.46-.24.93-.34,1.4L4,22.9v2.22l.1.32a1,1,0,0,1,.07.23A11.35,11.35,0,0,0,11.74,35a15.17,15.17,0,0,0,4,.73l.33,0c.43,0,.89.06,1.45.06l1,0a4.56,4.56,0,0,0-.18.52,2.36,2.36,0,0,0,0,.9,1.5,1.5,0,0,1,0,.2l0,.94.93-.12h.19a1.93,1.93,0,0,0,.87-.19c2-1,4.05-2.11,6-3.16a2,2,0,0,0,1-1.18C27.46,32.91,26.59,32.38,26.32,32.23Z"/><path class="cls-2" d="M43.71,22.56a1.11,1.11,0,0,1-.07-.22A11.87,11.87,0,0,0,31.69,12.2H29.31l.18-.52a2.2,2.2,0,0,0,0-.91c0-.07,0-.14,0-.2l0-.94-.93.12h-.18a2.06,2.06,0,0,0-.88.18c-2,1.05-4.06,2.13-6.05,3.2a1.84,1.84,0,0,0-.94,1.19c-.13.8.74,1.31.92,1.4C23.7,17,25.7,18,27.56,19a1.52,1.52,0,0,0,.72.15h.39l.88.05v-.88a1,1,0,0,1,0-.17,2,2,0,0,0-.05-.83c-.07-.2-.14-.4-.22-.6h2.79a7.33,7.33,0,0,1,7,5.69,7.22,7.22,0,0,1-3.78,8.08,12.52,12.52,0,0,1-2.31.78l-1.23.35-.59.19v4l1,0a11.62,11.62,0,0,0,10.66-7.34,18.22,18.22,0,0,0,.65-2.23c.08-.32.16-.65.25-1l0-.11V22.87Z"/></g></g></g></svg>