<svg xmlns="http://www.w3.org/2000/svg" viewBox="0 0 78.63 32.86"><defs><style>.cls-1{fill:#c646c8;}.cls-2{fill:#fff;}</style></defs><title>アセット 382</title><g id="レイヤー_2" data-name="レイヤー 2"><g id="状態ラベル"><g id="new"><rect class="cls-1" width="78.63" height="32.86" rx="16.43" ry="16.43"/><path class="cls-2" d="M30,25.14H26.38l-5-12.5-2.62,12.5H15.18L19.06,6.53h3.58l5,12.45,2.6-12.45h3.55Z"/><path class="cls-2" d="M47,19.53H37.81q0,.22,0,.33A3.06,3.06,0,0,0,38.57,22a2.46,2.46,0,0,0,1.87.83A3.12,3.12,0,0,0,43.27,21l3.26.55a6.86,6.86,0,0,1-2.54,3,6.66,6.66,0,0,1-3.57,1A5.94,5.94,0,0,1,36,23.74a6.19,6.19,0,0,1-1.7-4.55,8.28,8.28,0,0,1,1.54-4.93,6.92,6.92,0,0,1,6-2.92,5.18,5.18,0,0,1,3.94,1.53,6,6,0,0,1,1.46,4.28A10.13,10.13,0,0,1,47,19.53Zm-3.07-2.22c0-.16,0-.28,0-.37a3.27,3.27,0,0,0-.67-2.25,2.3,2.3,0,0,0-1.8-.75,2.86,2.86,0,0,0-2,.85,4.53,4.53,0,0,0-1.21,2.51Z"/><path class="cls-2" d="M62.38,25.14H58.95l-.66-8.58-4.11,8.58H50.8L49.11,11.66h3.24l.94,9,4.2-9H60.8l.46,9,4.18-9h3.66Z"/></g></g></g></svg>