<svg xmlns="http://www.w3.org/2000/svg" viewBox="0 0 101 36"><defs><style>.cls-1{fill:#9661de;}.cls-2{fill:#fff;}</style></defs><title>アセット 815</title><g id="レイヤー_2" data-name="レイヤー 2"><g id="視聴_" data-name="視聴★"><g id="オススメ_仮_" data-name="オススメ（仮）"><g id="イチオシ_css"><rect class="cls-1" width="101" height="36"/></g><path class="cls-2" d="M14.54,4.46c-.07.15-.16.44-.25.71A3.58,3.58,0,0,1,17,8.57c0,1.95-1.17,3.87-4.57,4.37l-.92-1.45c2.67-.3,3.76-1.64,3.76-3a2.07,2.07,0,0,0-1.42-1.95,10.83,10.83,0,0,1-2.93,4.2c.09.37.21.7.32,1l-1.6.48c0-.17-.12-.37-.18-.56a4.94,4.94,0,0,1-2.14.56,1.81,1.81,0,0,1-1.88-2c0-1.77,1.47-3.65,3.4-4.56,0-.58.09-1.17.14-1.73H8.51c-.73,0-1.81-.06-2.46-.09L6,2.24a22.86,22.86,0,0,0,2.56.18h.53l.09-.74a5.77,5.77,0,0,0,0-.82L11,.9a4.76,4.76,0,0,0-.19.74,7,7,0,0,0-.14.74,22.22,22.22,0,0,0,4.7-.59l0,1.6a42.07,42.07,0,0,1-4.94.51c0,.4-.08.82-.09,1.24a9.53,9.53,0,0,1,2.07-.25h.24a8.29,8.29,0,0,0,.12-.83ZM9.08,10.11a18.67,18.67,0,0,1-.29-2.77A3.63,3.63,0,0,0,7.05,9.89c0,.43.2.67.64.67A2.88,2.88,0,0,0,9.08,10.11Zm1.26-3.47a17.64,17.64,0,0,0,.15,2.3A8,8,0,0,0,12.25,6.3a6.93,6.93,0,0,0-1.91.31Z"/><path class="cls-2" d="M26.12,4a20.64,20.64,0,0,1-2.41.47,25.59,25.59,0,0,1-3,5.94l-1.69-.85a21.37,21.37,0,0,0,2.83-4.91c-.24,0-.48,0-.72,0-.57,0-1.13,0-1.74,0L19.3,3a17.58,17.58,0,0,0,1.85.1c.4,0,.82,0,1.24,0A11.65,11.65,0,0,0,22.77.7l1.92.2c-.11.45-.28,1.15-.47,1.89a14.15,14.15,0,0,0,1.86-.44Zm1.82,1.24c0,.59,0,1.16,0,1.78,0,.39,0,1.07.09,1.75a9.28,9.28,0,0,1,2.87,1.78L30,12a13,13,0,0,0-1.87-1.48v.13c0,1.29-.7,2.3-2.68,2.3-1.72,0-3.08-.77-3.08-2.3,0-1.36,1.13-2.41,3.07-2.41a9.09,9.09,0,0,1,.93.06c0-1-.11-2.26-.15-3.1Zm-1.53,4.6a4.52,4.52,0,0,0-1.12-.14c-.8,0-1.31.33-1.31.82s.43.87,1.19.87c.94,0,1.24-.54,1.24-1.29ZM30.32,6A18.83,18.83,0,0,0,27,4l.9-1.37A25.1,25.1,0,0,1,31.3,4.48Z"/><path class="cls-2" d="M40.64,4.12c-.83.18-1.77.34-2.69.45-.13.6-.27,1.22-.42,1.78a45,45,0,0,1-2.2,6.41l-1.95-.64a30.51,30.51,0,0,0,2.4-6.25c.1-.36.19-.76.29-1.15l-.91,0c-.67,0-1.19,0-1.68-.06l0-1.73a14.26,14.26,0,0,0,1.75.11c.41,0,.81,0,1.23,0,.06-.31.1-.58.13-.8A7,7,0,0,0,36.6.83L38.72,1c-.1.37-.23,1-.29,1.3l-.12.53c.79-.13,1.57-.28,2.33-.46Zm-.28,4.55a5,5,0,0,0-.2,1.16c0,.61.35,1.05,1.84,1.05a16.18,16.18,0,0,0,2.88-.27l-.07,1.77a21.68,21.68,0,0,1-2.83.2c-2.34,0-3.53-.81-3.53-2.21a9.63,9.63,0,0,1,.24-1.85Zm-.81-3.49c.77-.07,1.76-.14,2.66-.14s1.62,0,2.43.13l0,1.67a18.73,18.73,0,0,0-2.38-.17,20.55,20.55,0,0,0-2.67.15Z"/><path class="cls-2" d="M47.83,6.84c.65-.66,1.72-2.09,2.58-3.09s1.87-1.2,2.88-.22,2.05,2.35,2.88,3.25a44.87,44.87,0,0,0,3.39,3.4l-1.43,1.64c-1-.94-2.19-2.27-3.07-3.3s-1.89-2.34-2.55-3.07c-.49-.53-.74-.46-1.15,0-.55.7-1.54,2.08-2.13,2.86-.32.45-.63,1-.88,1.32L46.67,7.93A14.26,14.26,0,0,0,47.83,6.84Z"/><path class="cls-2" d="M66.68,11.07A11.9,11.9,0,0,0,68,10.84a3.76,3.76,0,0,0,3.15-3.71,3.43,3.43,0,0,0-2.9-3.67,31.09,31.09,0,0,1-.83,3.77c-.82,2.8-2,4.51-3.54,4.51S61,10,61,7.7a6.18,6.18,0,0,1,6.39-5.93A5.29,5.29,0,0,1,73,7.19c0,2.91-1.79,5-5.3,5.52ZM65.6,6.86a22.64,22.64,0,0,0,.74-3.36,4.36,4.36,0,0,0-3.52,4c0,1.4.57,2.09,1.08,2.09S65,8.74,65.6,6.86Z"/><path class="cls-2" d="M26.4,24.06a27.14,27.14,0,0,1-5.1,4.5,32.87,32.87,0,0,1-6.88,3.71l-.93-2.46A30.79,30.79,0,0,0,20,26.08a30.72,30.72,0,0,0,5.2-4.75H16.47l.43-2.7H27.26l.59-3.73H31l-.59,3.73h4.2l-.43,2.7H30L28.13,33.08H25Z"/><path class="cls-2" d="M54.4,31.07l-2.65,2.2a78.09,78.09,0,0,0-6-6.45,38.69,38.69,0,0,1-10.63,6.52L34,30.92a35.49,35.49,0,0,0,8.42-5,27.1,27.1,0,0,0,6.63-7.17H38.67l.43-2.69H52.57l.71.81a24,24,0,0,1-2.35,4.28A32.73,32.73,0,0,1,48,24.64Q51.86,28.24,54.4,31.07Z"/><path class="cls-2" d="M76.4,31.07l-2.65,2.2a78.09,78.09,0,0,0-6-6.45,38.69,38.69,0,0,1-10.63,6.52L56,30.92a35.49,35.49,0,0,0,8.42-5,27.1,27.1,0,0,0,6.63-7.17H60.67l.43-2.69H74.57l.71.81a24,24,0,0,1-2.35,4.28A32.73,32.73,0,0,1,70,24.64Q73.86,28.24,76.4,31.07Z"/><path class="cls-2" d="M96.7,15.52A27.62,27.62,0,0,1,92,24.21a51.74,51.74,0,0,1,4.42,4l-2.66,2.46a26.85,26.85,0,0,0-4-4,25.6,25.6,0,0,1-11.3,6.52l-.9-2.54a20.92,20.92,0,0,0,5.16-2.28,27,27,0,0,0,4.76-3.59Q86,23.62,81.69,21l2.17-2.18c2.25,1.27,4.19,2.48,5.79,3.61a23.44,23.44,0,0,0,3.88-7.23Z"/></g></g></g></svg>