<?xml version="1.0" encoding="utf-8"?>
<!-- Generator: Adobe Illustrator 19.2.1, SVG Export Plug-In . SVG Version: 6.00 Build 0)  -->
<svg version="1.1" xmlns="http://www.w3.org/2000/svg" xmlns:xlink="http://www.w3.org/1999/xlink" x="0px" y="0px"
	 viewBox="0 0 823.1 573.9" style="enable-background:new 0 0 823.1 573.9;" xml:space="preserve">
<style type="text/css">
	.st0{fill:#FFFFFF;}
	.st1{opacity:0.52;fill:#FFFFFF;}
</style>
<g id="レイヤー_1">
</g>
<g id="レイヤー_2">
	<g>
		<g>
			<path class="st0" d="M275.1,378h-5.3v-48h7.9c4.1,0,8.4,0.1,11.9,2.5c3.6,2.5,5.4,6.7,5.4,10.9c0,3.9-1.6,7.8-4.6,10.3
				c-3.2,2.7-7.4,3.2-11.4,3.2h-3.9V378z M275.1,352h3.6c5.9,0,10.9-1.8,10.9-8.7c0-7.8-6.3-8.4-12.5-8.4h-2V352z"/>
			<path class="st0" d="M349.4,354.1c0,13.8-11.3,24.8-25,24.8s-25-10.9-25-24.8c0-13.7,11.3-24.9,25-24.9S349.4,340.3,349.4,354.1z
				 M304.7,354c0,10.8,8.8,19.9,19.7,19.9s19.7-9,19.7-19.9c0-10.9-8.7-19.9-19.7-19.9C313.3,334.1,304.7,343.1,304.7,354z"/>
			<path class="st0" d="M369.7,366l15.5-38.4l15.5,38.4l12.6-36h5.8l-18.4,50.5l-15.5-38.6l-15.5,38.6L351.3,330h5.8L369.7,366z"/>
			<path class="st0" d="M424.8,330h24.9v5h-19.5v14.3h19v5h-19V373h19.5v5h-24.9V330z"/>
			<path class="st0" d="M464.1,378h-5.3v-48h6.9c9.1,0,17.6,2.4,17.6,13.2c0,7.4-4.6,12.6-12,13.2l15.3,21.5H480l-14.5-21.1h-1.3
				V378z M464.1,352.2h1.7c6,0,12.2-1.1,12.2-8.6c0-7.9-5.8-8.7-12.2-8.7h-1.6V352.2z"/>
			<path class="st0" d="M493.3,330h24.9v5h-19.5v14.3h19v5h-19V373h19.5v5h-24.9V330z"/>
			<path class="st0" d="M527.2,330h9c7.2,0,13,1,18.7,5.8c5.5,4.7,8,11.1,8,18.3c0,7-2.5,13.2-7.8,17.9c-5.7,5.1-11.5,6-19,6h-8.9
				V330z M536.5,373c5.9,0,10.8-0.8,15.1-5c3.9-3.7,6-8.7,6-14.1c0-5.5-2.1-10.8-6.2-14.4c-4.4-3.9-9.2-4.6-14.9-4.6h-3.9V373H536.5
				z"/>
		</g>
		<rect x="5.6" y="350.1" class="st0" width="244.5" height="2"/>
		<rect x="576.7" y="350.1" class="st0" width="244.5" height="2"/>
		<g>
			<g>
				<path class="st0" d="M51.1,228.5l-19.7,43.4H8.2L90.8,91.4l82.7,180.5h-23.2l-19.7-43.4H51.1z M90.8,138.7l-30.8,70.1h61.6
					L90.8,138.7z"/>
				<path class="st0" d="M468.8,98.7h93v19.7h-71.4v50.4h65.5v19.8h-65.5v63.5h71.4v19.7h-93V98.7z"/>
				<path class="st0" d="M293.2,126c-8.8-5.7-22.2-11.5-38.5-11.5c-38.8,0-68.5,32.4-68.5,70.7c0,37.9,29.4,70.3,68,70.3
					c17,0,29.5-5.9,39.1-12.4l11.8,17.2c-17.1,11.3-35,14.9-50.2,14.9c-49.4,0-90.3-39.3-90.3-89.3c0-51.2,41.1-91.2,92.1-91.2
					c15.2,0,31.5,3.6,48.3,14.2L293.2,126z"/>
				<path class="st0" d="M433.9,126c-8.8-5.7-22.2-11.5-38.5-11.5c-38.8,0-68.4,32.4-68.4,70.7c0,37.9,29.4,70.3,68,70.3
					c17,0,29.5-5.9,39.1-12.4l11.8,17.2c-17.1,11.3-35,14.9-50.2,14.9c-49.4,0-90.3-39.3-90.3-89.3c0-51.2,41.1-91.2,92.1-91.2
					c15.2,0,31.5,3.6,48.3,14.2L433.9,126z"/>
				<g>
					<circle class="st0" cx="396" cy="184.9" r="45.5"/>
					<ellipse class="st0" cx="396" cy="184.9" rx="43.6" ry="43.6"/>
					<path class="st0" d="M437.7,184.9c0,23.1-18.7,41.7-41.8,41.7c-23,0-41.7-18.7-41.7-41.7c0-23,18.7-41.7,41.7-41.7
						C419,143.2,437.7,161.9,437.7,184.9z"/>
					<path class="st0" d="M356.4,184.9c0-21.8,17.7-39.5,39.6-39.5c21.9,0,39.6,17.7,39.6,39.5c0,21.9-17.7,39.6-39.6,39.6
						C374.1,224.5,356.4,206.8,356.4,184.9z"/>
					<path class="st0" d="M433.3,184.9c0,20.6-16.7,37.4-37.4,37.4c-20.6,0-37.4-16.7-37.4-37.4c0-20.6,16.7-37.4,37.4-37.4
						C416.6,147.5,433.3,164.3,433.3,184.9z"/>
					<path class="st0" d="M363.3,184.9c0-18,14.6-32.7,32.7-32.7c18.1,0,32.7,14.6,32.7,32.7c0,18.1-14.6,32.7-32.7,32.7
						C377.9,217.6,363.3,203,363.3,184.9z"/>
					<path class="st0" d="M424,184.9c0,15.5-12.5,28-28,28c-15.5,0-28-12.5-28-28c0-15.5,12.5-28,28-28
						C411.4,156.9,424,169.5,424,184.9z"/>
					<path class="st0" d="M373.9,185c0-12.1,9.8-22,22-22c12.1,0,22,9.8,22,22c0,12.1-9.8,22-22,22C383.7,207,373.9,197.2,373.9,185
						z"/>
					<circle class="st0" cx="395.7" cy="185.1" r="16"/>
				</g>
				<path class="st1" d="M441.6,184.9c0,25.2-20.5,45.7-45.7,45.7c-25.2,0-45.7-20.5-45.7-45.7c0-25.2,20.5-45.7,45.7-45.7
					C421.2,139.2,441.6,159.7,441.6,184.9z"/>
				<g>
					<g>
						<g>
							<circle class="st0" cx="450.2" cy="57.9" r="30"/>
							<circle class="st0" cx="450.2" cy="57.9" r="28.7"/>
							<circle class="st0" cx="450.2" cy="57.9" r="27.5"/>
							<path class="st0" d="M425.1,57.9c0-13.9,11.2-25.1,25.1-25.1c13.9,0,25.1,11.2,25.1,25.1c0,13.9-11.2,25.1-25.1,25.1
								C436.3,83,425.1,71.8,425.1,57.9z"/>
							<path class="st0" d="M472.9,57.9c0,12.5-10.2,22.7-22.7,22.7c-12.5,0-22.7-10.2-22.7-22.7c0-12.5,10.2-22.7,22.7-22.7
								C462.7,35.2,472.9,45.4,472.9,57.9z"/>
						</g>
						<path class="st1" d="M480.1,57.9c0,16.5-13.4,29.9-29.9,29.9c-16.5,0-29.9-13.4-29.9-29.9c0-16.5,13.4-29.9,29.9-29.9
							C466.7,28,480.1,41.4,480.1,57.9z"/>
					</g>
					<g>
						<g>
							<path class="st0" d="M519.5,25c0,10.1-8.2,18.3-18.3,18.3c-10.1,0-18.3-8.2-18.3-18.3c0-10.1,8.2-18.3,18.3-18.3
								C511.3,6.7,519.5,14.9,519.5,25z"/>
							<circle class="st0" cx="501.2" cy="25" r="17.5"/>
							<circle class="st0" cx="501.2" cy="25" r="16.8"/>
							<circle class="st0" cx="501.2" cy="25" r="15.3"/>
							<ellipse class="st0" cx="501.2" cy="25" rx="13.9" ry="13.9"/>
						</g>
						<ellipse class="st1" cx="501.2" cy="25" rx="18.4" ry="18.4"/>
					</g>
					<g>
						<g>
							<circle class="st0" cx="544.7" cy="14.2" r="14.2"/>
							<circle class="st0" cx="544.7" cy="14.2" r="13.6"/>
							<path class="st0" d="M557.7,14.1c0,7.2-5.8,13-13,13c-7.2,0-13-5.8-13-13c0-7.2,5.8-13,13-13C551.9,1.2,557.7,7,557.7,14.1z"
								/>
							<path class="st0" d="M532.9,14.1c0-6.5,5.3-11.9,11.9-11.9c6.5,0,11.9,5.3,11.9,11.9c0,6.6-5.3,11.9-11.9,11.9
								C538.2,26,532.9,20.7,532.9,14.1z"/>
							<circle class="st0" cx="544.7" cy="14.2" r="10.7"/>
						</g>
						<circle class="st1" cx="544.7" cy="14.2" r="14.1"/>
					</g>
				</g>
				<path class="st0" d="M637.4,169.5l-12.4-4.8c-10.8-4.1-24.1-11.3-24.1-24.8c0-15.2,15.2-26.5,28.9-26.5
					c13.1,0,21.4,5.5,27.8,16.3l17.2-10.3c-9.4-16.8-25.3-26.2-44.5-26.2c-26.2,0-51,18.7-51,46.7c0,24.1,17.9,35.4,37.7,43.9
					l11.9,5.1c14.9,6.2,29.9,14.2,29.9,32.8c0,18.1-13.3,33.8-31.9,33.8c-15.9,0-29.3-10.1-32.7-25l-20.2,7.5
					c7.2,22.2,26.8,37.7,51.1,37.7c31,0,55.4-22.5,55.4-54C680.4,192.7,662,179.1,637.4,169.5z"/>
				<path class="st0" d="M760.6,169.5l-12.4-4.8c-10.8-4.1-24.1-11.3-24.1-24.8c0-15.2,15.2-26.5,28.9-26.5
					c13.1,0,21.4,5.5,27.8,16.3l17.2-10.3c-9.4-16.8-25.3-26.2-44.6-26.2c-26.2,0-51,18.7-51,46.7c0,24.1,17.9,35.4,37.7,43.9
					l11.9,5.1C767,195,782,203,782,221.6c0,18.1-13.3,33.8-31.9,33.8c-15.8,0-29.2-10-32.6-24.7l-20.2,7.5c7.3,22,26.8,37.4,51,37.4
					c31,0,55.4-22.5,55.4-54C803.6,192.7,785.2,179.1,760.6,169.5z"/>
			</g>
			<g>
				<path class="st0" d="M806.3,101.5h-3.8v9.8h-1.6v-9.8H797v-1.6h9.3V101.5z M820.7,111.3H819v-9.8H819l-3.9,9.8H814l-3.8-9.8
					h-0.1v9.8h-1.6V99.9h2.8l3.3,8.3l3.4-8.3h2.7V111.3z"/>
			</g>
		</g>
		<g>
			<g>
				<path class="st0" d="M0,512.3h15.6L41.9,539l-1-26.7h18.5v52H43.8l-26.3-26.7l1,26.7H0V512.3z"/>
				<path class="st0" d="M103.2,557.1c-4.4,5.1-10.9,7.9-18.6,7.9c-13.9,0-22.9-9.2-22.9-21c0-11.8,8.9-20.7,20.8-20.7
					c12.3,0,21.9,9.8,20.1,23.8H76.3c0.1,4.1,5,8,11.1,8c4.3,0,8.2-1.4,12.9-4.6L103.2,557.1z M89.6,541.2c-0.1-6-2.4-9-6.9-9
					c-4.1,0-7.3,2.7-6.9,9H89.6z"/>
				<path class="st0" d="M140.5,560.5c-4.1,3.1-8.5,4.5-13.9,4.5c-4.8,0-9.6-1.4-12.5-4.3c-2.3-2.3-3.1-5.2-3.1-10.7v-15.9h-7v-5
					l19.3-17.2h3.6V524h12.7v10.1h-12.7v12.1c0,3.7,1.4,5.3,4.7,5.3c2.7,0,5.6-1,8.9-3.1V560.5z"/>
				<path class="st0" d="M143.4,512.3h38v11h-19.8v9.5h18.5v11h-18.5v20.6h-18.2V512.3z"/>
				<path class="st0" d="M199.1,524v10.8h0.2c2.8-7.6,7.3-11.4,12.9-11.4c3.1,0,6.1,1,9.8,3.1l-7,16c-2.5-2.4-4.6-3.4-6.8-3.4
					c-3.9,0-6.6,3.8-7.5,8.5v16.7h-15.9V524H199.1z"/>
				<path class="st0" d="M244.2,523.3c17.2,0,23.7,11.1,23.7,20.8c0,10.7-7.6,20.8-23.6,20.8c-17.2,0-23.9-11-23.9-20.8
					C220.4,533.8,227.5,523.3,244.2,523.3z M244.2,551.9c4.7,0,7.9-3.2,7.9-7.8c0-4.6-3.2-7.8-7.9-7.8c-4.7,0-7.9,3.2-7.9,7.8
					C236.3,548.7,239.5,551.9,244.2,551.9z"/>
				<path class="st0" d="M270.8,524h15.9v5.3c4.3-4.3,7.9-6,13-6c8.8,0,13.8,5.4,13.8,14.3v26.6h-15.9v-22c0-4-1.4-5.9-4.6-5.9
					c-2.5,0-4.6,1.4-6.3,4.3v23.6h-15.9V524z"/>
				<path class="st0" d="M352.5,560.5c-4.1,3.1-8.5,4.5-13.9,4.5c-4.8,0-9.6-1.4-12.5-4.3c-2.3-2.3-3.1-5.2-3.1-10.7v-15.9h-7v-5
					l19.3-17.2h3.6V524h12.7v10.1h-12.7v12.1c0,3.7,1.4,5.3,4.7,5.3c2.7,0,5.6-1,8.9-3.1V560.5z"/>
			</g>
			<g>
				<path class="st0" d="M413,561.6c-3.3,1.9-6.8,2.7-12.6,2.7h-12.9v-52.1H401c6.5,0,9.2,0.5,11.8,2.2c2.9,1.9,4.3,4.8,4.3,8.6
					c0,6.5-3.9,11.2-10.9,13c3.2,0.2,4.9,0.6,7,1.6c4.3,2.1,7,6.5,7,11.7S417.6,558.9,413,561.6z M406.5,518.3c-1.6-0.8-3.3-1-7.4-1
					h-4.8v17.3h2.6c4.6,0,7.4-0.9,9.8-3c2.2-1.9,3.3-4.2,3.3-7C410.2,521.7,408.8,519.5,406.5,518.3z M408,541.3
					c-2-1-4.8-1.6-8.6-1.6h-5.1v19.5h5.7c4.5,0,6.8-0.5,8.9-2.1c2.4-1.7,3.6-4.2,3.6-7.5C412.7,545.9,411.1,542.9,408,541.3z"/>
				<path class="st0" d="M444.3,534.4c-2.1-1-3.5-1.9-5-1.9c-2.4,0-4.4,1.9-5.2,4.6c-0.7,2.2-1,4.5-1,9.4v17.6h-6.7v-37.2h6.7v5.2
					l1.6-2.4c1.4-2.2,3.6-3.7,6.1-3.7c2.1,0,4.1,1,6.7,3.7L444.3,534.4z"/>
				<path class="st0" d="M465.4,565.1c-10.7,0-18.3-8.1-18.3-19.7c0-11.4,7.6-19.3,18.4-19.3c10.3,0,18,8.3,18,19.2
					C483.6,556.9,476,565.1,465.4,565.1z M465.2,530.8c-6.7,0-10.9,5.6-10.9,14.6c0,9.5,4.1,15,11.2,15c6.8,0,10.9-5.7,10.9-15.1
					C476.4,536.3,472.2,530.8,465.2,530.8z"/>
				<path class="st0" d="M529.2,564.2h-4.4l-10.9-28.5l-11.2,28.5h-4.4l-12.8-36.4l6.1-1.6l9.7,29.1l10.9-28.3h4.4l10.9,28.3
					l9.5-29.1l5.7,1L529.2,564.2z"/>
				<path class="st0" d="M557.1,565.1c-4.7,0-7.8-1.3-11.8-4.8l3.3-3.7c3,2.8,5.1,3.8,8,3.8c3.8,0,6.2-2.1,6.2-5.4
					c0-2.8-1-4.1-6.2-7.9c-3.9-2.8-8.8-5.9-8.8-11.2c0-5.6,5.1-9.7,11.8-9.7c3.7,0,6.8,1.2,9.7,3.3l-2.7,3.4c-2-1.6-4.3-2.4-6.8-2.4
					c-3.2,0-5.5,1.7-5.5,4.2c0,1.9,1,3.3,4.5,5.7c9.1,6.5,11.1,8.9,11.1,13.8C569.7,560.7,564.5,565.1,557.1,565.1z"/>
				<path class="st0" d="M602.4,546.1h-22c0.2,8.7,5.3,14.4,12.8,14.4c3.2,0,6.6-1.1,9.7-3.2l1.9,3.6c-5,3.2-8.5,4.3-13.2,4.3
					c-5.3,0-9.7-1.9-12.9-5.1c-3.4-3.5-5.4-8.7-5.4-14.9c0-5.6,1.8-10.3,4.8-13.6c3-3.3,7.4-5.4,12.6-5.4c6.7,0,11.4,3,13.5,9.2
					c0.8,2.5,1.3,5.7,1.4,10.7H602.4z M599,539.9c-0.5-5.5-3.3-9.1-8.4-9.1c-5.7,0-9.5,4.2-10,11h18.5
					C599.1,541.2,599.1,540.5,599,539.9z"/>
				<path class="st0" d="M629.5,534.4c-2.1-1-3.5-1.9-5-1.9c-2.4,0-4.4,1.9-5.2,4.6c-0.7,2.2-1,4.5-1,9.4v17.6h-6.7v-37.2h6.7v5.2
					l1.6-2.4c1.4-2.2,3.6-3.7,6.1-3.7c2.1,0,4.1,1,6.7,3.7L629.5,534.4z"/>
			</g>
			<g>
				<g>
					<g>
						<g>
							<g>
								<path class="st0" d="M358.4,512.2v1.7H356v5.6h-2V514h-2.4v-1.7H358.4z M362.2,512.2l1,4h0l1-4h3v7.3h-1.9v-5.2h0l-1.3,5.2
									h-1.6l-1.2-5.2h0v5.2h-1.9v-7.3H362.2z"/>
							</g>
						</g>
					</g>
				</g>
			</g>
			<path class="st0" d="M753.8,573.9"/>
			<path class="st0" d="M727,537.9c1.2-0.6,2.1-1.3,3-2.3c3.4-4.1,2.3-10.1,2.3-11.4c-0.1-7.3-6.7-13.2-14.8-13.2h-52.7
				c-11.2,0-11.9,0.8-11.9,9.9V555c0,10.2,0.8,10.8,11.9,10.8h52.7c8,0,14.7-5.9,14.8-13.2c0,0,1.1-8.1-2.5-12.5
				C729,539.2,728.1,538.5,727,537.9z M669.1,555c-3.7,0-4.2-0.6-4.2-3.7v-4.5c0-3.1,0.7-3.7,4.2-3.7h47c2.3,0,4.2,1.7,4.2,3.7v4.5
				c0,2-1.9,3.7-4.2,3.7H669.1z M716.1,521c2.3,0,4.2,1.7,4.2,3.7v4.5c0,2-1.9,3.7-4.2,3.7h-47c-3.7,0-4.2-0.6-4.2-3.7v-4.5
				c0-3,0.7-3.7,4.2-3.7H716.1z"/>
			<path class="st0" d="M760.8,520.7l59,0c1.8-0.1,3.3-1.7,3.3-3.5v-3c0-1.5-1-2.7-2.3-3.2v-0.2h-61.4c-7.7,0-14,5.9-14,13.3v28.3
				c0,7.3,6.3,13.3,14,13.3h60.5l0.1,0c1.6-0.3,2.9-2,2.9-3.8v-3.3c0-1.5-0.8-2.7-2.1-3.3v-0.3h-59.9c-2.2,0-4.1-1.7-4.1-3.7v-4.5
				c0-0.6,0.2-1.2,0.5-1.7l0,0c0.3-0.5,0.7-1,1.2-1.3c0.7-0.5,1.5-0.7,2.4-0.7h58.9l1,0v-0.2c1.4-0.5,2.3-1.9,2.3-3.4V536
				c0-1.5-1-2.8-2.3-3.3v-0.2h-59.9c-2.2,0-4.1-1.7-4.1-3.7v-4.5C756.7,522.3,758.6,520.7,760.8,520.7z"/>
		</g>
	</g>
</g>
</svg>
