<svg xmlns="http://www.w3.org/2000/svg" viewBox="0 0 260.38 260.38"><defs><style>.cls-1{fill:#fff;}.cls-2{fill:none;}</style></defs><title>アセット 1</title><g id="レイヤー_2" data-name="レイヤー 2"><g id="レイヤー_1-2" data-name="レイヤー 1"><rect class="cls-1" width="260.38" height="260.38"/><polygon class="cls-2" points="94.68 149.91 102.57 149.91 102.57 142.02 94.68 142.02 86.79 142.02 86.79 149.91 94.68 149.91"/><polygon class="cls-2" points="173.59 134.13 165.69 134.13 165.69 142.02 173.59 142.02 181.47 142.02 181.47 134.13 173.59 134.13"/><polygon class="cls-2" points="78.9 149.91 78.9 149.91 71.01 149.91 71.01 157.8 78.9 157.8 78.9 157.8 86.79 157.8 86.79 149.91 78.9 149.91"/><rect class="cls-2" x="126.24" y="63.12" width="7.89" height="7.89"/><polygon class="cls-2" points="181.47 126.24 181.47 134.13 189.37 134.13 189.37 126.24 189.37 118.35 181.47 118.35 181.47 126.24"/><rect class="cls-2" x="149.91" y="102.57" width="7.89" height="7.89"/><polygon class="cls-2" points="126.24 86.79 126.24 78.9 118.35 78.9 118.35 86.79 110.46 86.79 110.46 78.9 102.57 78.9 102.57 86.79 102.57 94.68 110.46 94.68 118.35 94.68 118.35 94.68 126.24 94.68 126.24 86.79"/><polygon class="cls-2" points="110.46 71.01 118.35 71.01 118.35 63.12 126.24 63.12 126.24 55.23 118.35 55.23 118.35 47.34 118.35 47.34 118.35 39.45 110.46 39.45 110.46 47.34 102.57 47.34 102.57 55.23 102.57 63.12 102.57 63.12 102.57 71.01 110.46 71.01"/><rect class="cls-2" x="110.46" y="205.15" width="7.89" height="7.89"/><rect class="cls-2" x="142.02" y="142.02" width="7.89" height="7.89"/><rect class="cls-2" x="86.79" y="110.46" width="7.89" height="7.89"/><path class="cls-2" d="M71,181.48H39.45v23.67h0v15.78H78.9V205.15h0V181.48Zm0,15.78v7.89h0V213H47.34v-7.89h0V189.37H71Z"/><polygon class="cls-2" points="157.8 134.13 165.69 134.13 165.69 126.24 173.59 126.24 173.59 118.35 181.47 118.35 181.47 110.46 181.47 102.57 173.59 102.57 173.59 110.46 165.69 110.46 165.69 110.46 157.8 110.46 157.8 118.35 149.91 118.35 149.91 118.35 142.02 118.35 142.02 110.46 142.02 102.57 134.13 102.57 134.13 110.46 134.13 118.35 134.13 118.35 134.13 126.24 142.02 126.24 149.91 126.24 149.91 134.13 149.91 134.13 149.91 142.02 157.8 142.02 157.8 134.13"/><rect class="cls-2" x="149.91" y="78.9" width="7.89" height="7.89"/><rect class="cls-2" x="78.9" y="102.57" width="7.89" height="7.89"/><path class="cls-2" d="M47.34,78.9H78.9V63.12h0V47.34h0V39.45H39.45v7.89h0V63.12h0V78.9Zm0-15.78h0V47.34H71V63.12h0V71H47.34Z"/><rect class="cls-2" x="197.26" y="157.8" width="7.89" height="7.89"/><polygon class="cls-2" points="213.04 205.15 213.04 213.04 205.15 213.04 205.15 220.93 213.04 220.93 220.93 220.93 220.93 213.04 220.93 205.15 213.04 205.15"/><polygon class="cls-2" points="181.47 213.04 181.47 205.15 173.59 205.15 165.69 205.15 165.69 197.26 157.8 197.26 149.91 197.26 149.91 205.15 157.8 205.15 157.8 213.04 165.69 213.04 165.69 213.04 173.59 213.04 173.59 220.93 181.47 220.93 181.47 213.04"/><rect class="cls-2" x="205.15" y="181.48" width="7.89" height="7.89"/><path class="cls-2" d="M213,39.45H181.48v7.89h0V63.12h0V78.9h39.45V63.12h0V47.34h0V39.45Zm0,15.78v7.89h0V71H189.37V63.12h0V47.34H213Z"/><polygon class="cls-2" points="220.93 126.24 220.93 118.35 213.04 118.35 213.04 110.46 213.04 102.57 205.15 102.57 205.15 102.57 197.26 102.57 189.37 102.57 189.37 110.46 189.37 118.35 197.26 118.35 197.26 110.46 205.15 110.46 205.15 118.35 197.26 118.35 197.26 126.24 197.26 134.13 205.15 134.13 205.15 126.24 213.04 126.24 220.93 126.24"/><polygon class="cls-2" points="189.37 134.13 189.37 142.02 181.47 142.02 181.47 149.91 181.47 149.91 181.47 157.8 189.37 157.8 197.26 157.8 197.26 149.91 197.26 149.91 197.26 142.02 197.26 134.13 189.37 134.13"/><rect class="cls-2" x="110.46" y="142.02" width="7.89" height="7.89"/><polygon class="cls-2" points="142.02 149.91 134.13 149.91 134.13 149.91 126.24 149.91 126.24 157.8 126.24 165.69 134.13 165.69 134.13 157.8 142.02 157.8 142.02 149.91"/><rect class="cls-2" x="157.8" y="142.02" width="7.89" height="7.89"/><polygon class="cls-2" points="157.8 157.8 157.8 149.91 149.91 149.91 149.91 157.8 149.91 165.69 157.8 165.69 157.8 157.8"/><path class="cls-2" d="M165.69,189.37h23.68v-7.89h0V165.69H165.69v15.78h0Zm7.89-15.79h7.9v7.9h-7.9Z"/><polygon class="cls-2" points="197.26 197.26 197.26 205.15 189.37 205.15 189.37 213.04 197.26 213.04 205.15 213.04 205.15 205.15 205.15 205.15 205.15 197.26 197.26 197.26"/><path d="M220.93,31.56H173.58V47.34h0V63.12h0V78.9h0v7.89h55.24V78.9h0V63.12h0V47.34h0V31.56Zm0,15.78V63.12h0V78.9H181.48V63.12h0V47.34h0V39.45h39.45v7.89Z"/><polygon points="205.15 47.34 197.26 47.34 189.37 47.34 189.37 55.23 189.37 63.12 189.37 63.12 189.37 71.01 197.26 71.01 205.15 71.01 205.15 71.01 213.04 71.01 213.04 63.12 213.04 63.12 213.04 55.23 213.04 47.34 205.15 47.34 205.15 47.34"/><polygon points="63.12 71.01 63.12 71.01 71.01 71.01 71.01 63.12 71.01 63.12 71.01 55.23 71.01 47.34 63.12 47.34 63.12 47.34 55.23 47.34 47.34 47.34 47.34 55.23 47.34 63.12 47.34 63.12 47.34 71.01 55.23 71.01 63.12 71.01"/><path d="M47.34,86.79H86.79V78.9h0V63.12h0V47.34h0V31.56H31.56V47.34h0V63.12h0V78.9h0v7.89H47.34ZM39.45,71V63.12h0V47.34h0V39.45H78.9v7.89h0V63.12h0V78.9H39.45Z"/><path d="M220.93,102.57H213V94.68H173.58v7.89h-7.89V94.68H157.8V86.79h-7.89V78.9h7.89v7.89h7.89V78.9H157.8V71h-7.89V78.9H142V94.68h-7.89V78.9h0V71H142V63.12h7.89V55.23H134.13V47.34h-7.89V39.45h23.67v7.89h7.89v7.89h7.89V47.34h0V31.56H157.8v7.89h-7.89V31.56H102.57V47.34H94.68V63.12h0V78.9h0V94.68h7.89v7.89h7.89v7.89h7.89v-7.89h7.89v15.78h0v15.78H142V142h7.89v7.89H142V142H118.35v-7.89h0v-7.89h-7.89v7.89H86.79v-7.89H78.9v7.89h7.89V142h15.78v7.89H86.79V142H71v7.89H63.12V134.13H71v-7.89H63.12v-7.89H55.23v7.89h7.89v7.89H47.34v-7.89H39.45v7.89H31.56v15.78h0v15.78h7.89V149.91h0V142H55.23v7.89h7.89v7.89H71v-7.89H86.79v7.89h23.67v7.89H94.68v7.89h15.78v7.89h0v7.89h7.89v-7.89h0V165.69h7.89v7.89h7.89v-7.89H142v7.89H157.8v7.89h-7.89v7.9H134.13v-7.9h-7.89v15.79H142v7.89h0V213h7.89v7.89h23.67v7.89h55.24v-7.89h0V205.15h0V189.37h-7.89v-7.89h7.89v-7.9H213v-7.89h0V157.8h-7.89v-7.89h0V134.13H213v15.78h7.89v7.89h7.89v-7.89h0V142h-7.89v-7.89h7.89V118.35h0v-7.89h-7.89Zm-31.56,23.67v7.89h-7.89V118.35h7.89ZM173.58,142h-7.89v-7.89h15.79V142ZM126.24,71V63.12h7.89V71Zm-23.67-7.89V47.34h7.89V39.45h7.89v7.89h0v7.89h7.89v7.89h-7.89V71H102.57V63.12Zm15.78,31.56H102.57V78.9h7.89v7.89h7.89V78.9h7.89V94.68Zm31.56,39.45h0v-7.89H134.13v-7.89h0V102.57H142v15.78H157.8v-7.89h-7.89v-7.89h7.89v7.89h15.78v-7.89h7.9v15.78h-7.9v7.89h-7.89v7.89H157.8V142h7.89v7.89H157.8V142h-7.89ZM118.35,142v7.89h-7.89V142Zm15.78,15.78v7.89h-7.89V149.91H142v7.89Zm15.78,7.89V149.91h7.89v15.78Zm15.78,7.89v-7.89h23.68v15.78h0v7.89H165.69v-7.89h0Zm39.46,31.57V213H189.37v-7.89h7.89v-7.89h7.89v7.89ZM213,189.37h-7.89v-7.89H213Zm-39.46,31.56V213H157.8v-7.89h-7.89v-7.89h15.78v7.89h15.79v15.78Zm47.35,0H205.15V213H213v-7.89h7.89v15.78Zm-23.67-71h0v7.89h7.89v7.89h-7.89V157.8H181.48v-7.89h0V142h7.89v-7.89h7.89v15.78Zm7.89-23.67v7.89h-7.89V118.35h7.89v-7.89h-7.89v7.89h-7.89V102.57H213v15.78h7.89v7.89H205.15Z"/><rect x="31.56" y="118.35" width="7.89" height="7.89"/><polygon points="94.68 118.35 102.57 118.35 102.57 110.46 94.68 110.46 94.68 118.35 86.79 118.35 86.79 110.46 78.9 110.46 78.9 102.57 86.79 102.57 86.79 110.46 94.68 110.46 94.68 102.57 86.79 102.57 86.79 94.68 78.9 94.68 78.9 94.68 71.01 94.68 63.12 94.68 63.12 94.68 55.23 94.68 47.34 94.68 47.34 102.57 39.45 102.57 39.45 94.68 31.56 94.68 31.56 102.57 31.56 102.57 31.56 110.46 39.45 110.46 47.34 110.46 47.34 110.46 55.23 110.46 55.23 102.57 63.12 102.57 63.12 110.46 71.01 110.46 71.01 118.35 78.9 118.35 78.9 118.35 86.79 118.35 86.79 126.24 94.68 126.24 94.68 118.35"/><polygon points="78.9 157.8 71.01 157.8 71.01 165.69 78.9 165.69 78.9 165.69 86.79 165.69 86.79 157.8 78.9 157.8 78.9 157.8"/><path d="M78.9,173.58H31.56v7.89h0v23.67h0v15.78h0v7.89H86.79v-7.89h0V205.15h0V181.48h0v-7.89Zm0,23.68v7.89h0v15.78H39.45V205.15h0V181.48H78.9v15.78Z"/><rect x="173.58" y="173.58" width="7.89" height="7.89"/><polygon points="102.57 181.47 94.68 181.47 94.68 189.37 94.68 197.26 94.68 205.15 94.68 205.15 94.68 213.04 102.57 213.04 102.57 213.04 110.46 213.04 110.46 205.15 118.35 205.15 118.35 213.04 110.46 213.04 110.46 220.93 102.57 220.93 102.57 220.93 94.68 220.93 94.68 228.82 102.57 228.82 102.57 228.82 110.46 228.82 110.46 220.93 118.35 220.93 118.35 228.82 126.24 228.82 134.13 228.82 134.13 220.93 126.24 220.93 126.24 213.04 134.13 213.04 134.13 205.15 126.24 205.15 118.35 205.15 118.35 197.26 110.46 197.26 110.46 189.37 102.57 189.37 102.57 181.47"/><polygon points="63.12 189.37 55.23 189.37 47.34 189.37 47.34 197.26 47.34 205.15 47.34 205.15 47.34 213.04 55.23 213.04 63.12 213.04 63.12 213.04 71.01 213.04 71.01 205.15 71.01 205.15 71.01 197.26 71.01 189.37 63.12 189.37 63.12 189.37"/></g></g></svg>