<svg xmlns="http://www.w3.org/2000/svg" viewBox="0 0 250 250"><defs><style>.cls-1{fill:#fff;}</style></defs><title>アセット 3</title><g id="レイヤー_2" data-name="レイヤー 2"><g id="レイヤー_1-2" data-name="レイヤー 1"><rect class="cls-1" width="250" height="250"/><polygon points="24.39 24.39 24.39 30.49 24.39 30.49 24.39 36.59 24.39 42.68 24.39 42.68 24.39 48.78 24.39 54.88 24.39 60.98 24.39 60.98 24.39 67.07 30.49 67.07 36.59 67.07 36.59 60.98 30.49 60.98 30.49 54.88 30.49 48.78 30.49 42.68 30.49 42.68 30.49 36.59 30.49 30.49 36.59 30.49 36.59 24.39 30.49 24.39 24.39 24.39"/><polygon points="48.78 24.39 42.68 24.39 36.59 24.39 36.59 30.49 42.68 30.49 48.78 30.49 54.88 30.49 60.98 30.49 60.98 24.39 54.88 24.39 48.78 24.39"/><rect x="79.27" y="24.39" width="6.1" height="6.1"/><rect x="152.44" y="24.39" width="6.1" height="6.1"/><path d="M219.51,24.39H182.93v6.1h0V42.68h0V61h0v6.09h42.68V61h0V42.68h0V30.49h0v-6.1Zm0,12.2v6.09h0V61H189V42.68h0V30.49h30.49Z"/><polygon points="73.17 36.59 73.17 42.68 73.17 42.68 73.17 48.78 79.27 48.78 79.27 42.68 79.27 42.68 79.27 36.59 79.27 30.49 73.17 30.49 73.17 36.59"/><polygon points="201.22 36.59 195.12 36.59 195.12 42.68 195.12 42.68 195.12 48.78 195.12 54.88 201.22 54.88 207.32 54.88 213.41 54.88 213.41 48.78 213.41 42.68 213.41 42.68 213.41 36.59 207.32 36.59 201.22 36.59"/><polygon points="48.78 54.88 54.88 54.88 54.88 48.78 54.88 42.68 54.88 42.68 54.88 36.59 48.78 36.59 42.68 36.59 36.59 36.59 36.59 42.68 36.59 42.68 36.59 48.78 36.59 54.88 42.68 54.88 48.78 54.88"/><polygon points="48.78 60.98 42.68 60.98 36.59 60.98 36.59 67.07 42.68 67.07 48.78 67.07 54.88 67.07 60.98 67.07 60.98 60.98 54.88 60.98 48.78 60.98"/><polygon points="67.07 60.98 67.07 60.98 67.07 54.88 67.07 48.78 67.07 42.68 67.07 42.68 67.07 36.59 67.07 30.49 67.07 30.49 67.07 24.39 60.98 24.39 60.98 30.49 60.98 30.49 60.98 36.59 60.98 42.68 60.98 42.68 60.98 48.78 60.98 54.88 60.98 60.98 60.98 60.98 60.98 67.07 67.07 67.07 67.07 60.98"/><polygon points="73.17 67.07 73.17 73.17 73.17 79.27 79.27 79.27 79.27 73.17 79.27 67.07 79.27 60.98 73.17 60.98 73.17 67.07"/><rect x="158.54" y="60.98" width="6.1" height="6.1"/><rect x="170.73" y="60.98" width="6.1" height="6.1"/><polygon points="30.49 73.17 24.39 73.17 24.39 79.27 30.49 79.27 30.49 85.37 24.39 85.37 24.39 91.46 24.39 97.56 30.49 97.56 30.49 103.66 36.59 103.66 36.59 97.56 36.59 97.56 36.59 91.46 36.59 85.37 36.59 79.27 30.49 79.27 30.49 73.17"/><rect x="60.98" y="73.17" width="6.1" height="6.1"/><rect x="54.88" y="79.27" width="6.1" height="6.1"/><rect x="60.98" y="85.37" width="6.1" height="6.1"/><rect x="73.17" y="85.37" width="6.1" height="6.1"/><path d="M219.51,85.37v-6.1h0v-6.1H201.22v6.1H189v-6.1H158.54v6.1h0v6.1h12.19v-6.1h6.1v6.1h-6.1V97.56h-6.1v6.1h-6.09v6.1h-12.2v6.09h-6.1v-6.09h0v-6.1h-6.09v6.1h0V122h-6.1V109.76h-12.2v6.09H122V122h6.1v6.1H122V122h-6.1v6.1h-6.09V122h-6.1v6.1H91.46v12.19H79.27v6.1H91.46v6.1h6.1v12.19H79.27v12.2h6.1v6.1h6.09v-6.1H85.37v-6.1h18.29v-6.1h6.1v-6.09h-6.1v-6.1h6.1v-6.1h-6.1v-6.1h-6.1v-6.09h6.1v6.09h12.19v6.1h12.2v-6.1h12.19v6.1h-6.09v6.1h6.09v-6.1h6.1V134.15h6.1v-6.1h-6.1v-12.2h18.29V122h-6.09v6.1h6.09v18.29h-6.09v6.1h-18.3v6.1h12.2v6.09h12.19v6.1h6.1v-6.1h-6.1v-6.09h6.1v-12.2h0v-6.1h6.1v6.1h0v6.1h6.1v-6.1h0V134.15H189v-6.1h12.2v12.19H189v6.1h0v12.2h6.1v6.09h6.1v6.1H189v-6.1h-6.09v-6.09h-6.1v6.09h0v6.1h-6.1v6.1h0v6.1h-6.1V189h-6.09v6.1h0v6.1h6.09v6.1H152.44v6.09h-6.1v-6.09h6.1v-12.2h-6.1V189H134.15V176.83h-6.1v-12.2h6.1V152.44h-6.1v12.19h-12.2v6.1H122v6.1h-6.1V189h-6.09v-6.09h-6.1v-6.1h-6.1v18.29h0v6.1h6.1v-6.1h12.19v6.1h12.2v-6.1h12.19v6.1h-6.09v6.1h-6.1v6.1h6.1v6.09h6.09v6.1h6.1v-6.1h6.1v-6.09h6.1v6.09h6.09v-6.09h0v-6.09h6.1v-6.1h-6.1v-6.1h0V189h6.1v6.1h0v6.1h6.1v6.1h-6.1v6.1h6.1v6.09h-6.1v6.1h6.1v-6.1h6.1v-6.1h-6.1v-6.09h6.1v-6.1h12.19v6.1H189v6.1h6.1v6.09H182.93v6.1h18.29v-6.1h12.19v6.1h6.1v-6.1h-6.09v-6.09h12.19v-12.2h-6.1v-6.1h6.1V189h-6.1v6.1h-6.09V189h6.09v-6.09h6.1v-6.1h0v-12.2h-6.1v-6.09h-6.1v6.09h-6.09V146.34h18.29V128.05h0v-12.2h-6.1v12.2h0v6.1h-6.09v-6.1h-12.2V122h12.2v-6.1h6.09v-6.09h6.1v-6.1H201.22v6.1h12.19v6.09H189v12.2h-6.09V109.76h12.19v-6.1h6.1v-6.1h24.39v-6.1h-6.1ZM122,140.24v-6.09h6.1v6.09Zm6.1-6.09v-6.1h6.1v6.1ZM122,182.93h6.1V189H122Zm85.37-6.1v18.29h-6.1V176.83ZM189,195.12H176.83V176.83h18.29v18.29Zm24.39,12.2h-6.09v6.09h-6.1V201.22h6.1v-6.1h6.09v12.2Zm0-36.59v6.1h-6.09v-6.1ZM189,79.27v6.1h6.1v6.09H189V85.37h-6.09v-6.1Zm-12.19,48.78v6.1h-6.1v-6.1h-6.1V122h12.2v6.1Zm6.1-18.29h-6.1v6.09h-12.2v-6.09h6.1v-6.1h6.1v-6.1h6.1v12.2Zm6.09-6.1v-6.1h6.1v6.1Zm12.2-12.2V85.37h6.1v6.09Z"/><polygon points="54.88 97.56 48.78 97.56 48.78 91.46 42.68 91.46 42.68 85.37 36.59 85.37 36.59 91.46 36.59 97.56 42.68 97.56 48.78 97.56 48.78 103.66 42.68 103.66 36.59 103.66 36.59 109.76 42.68 109.76 42.68 115.85 48.78 115.85 48.78 109.76 54.88 109.76 60.98 109.76 60.98 103.66 54.88 103.66 54.88 97.56 60.98 97.56 60.98 91.46 54.88 91.46 54.88 97.56"/><rect x="60.98" y="97.56" width="6.1" height="6.1"/><polygon points="24.39 109.76 24.39 109.76 24.39 115.85 24.39 121.95 30.49 121.95 30.49 115.85 36.59 115.85 36.59 109.76 30.49 109.76 30.49 103.66 24.39 103.66 24.39 109.76"/><polygon points="67.07 103.66 67.07 109.76 60.98 109.76 60.98 115.85 67.07 115.85 67.07 109.76 73.17 109.76 79.27 109.76 79.27 103.66 73.17 103.66 67.07 103.66"/><path d="M103.66,109.76h6.1V97.56h0v-6.1H122V79.27h6.1V91.46H122v6.1h-6.1v6.1H122v-6.1h6.1v6.1h6.1v-6.1h12.19v6.1h6.1v-6.1h0V79.27h-6.1v-6.1h6.1V61h-6.1v-6.1h6.1v-6.1h6.1v-6.1h6.09v6.1h-6.09v6.1h12.19v-6.1h6.1v-6.1h0V36.59h-6.1v6.09h-6.1V36.59H140.24v6.09h-6.09v6.1h12.19v6.1H134.15v-6.1h-6.1v-6.1h0V30.49h6.1v6.1h6.09v-6.1h0v-6.1H128.05v6.1H122v6.1H109.76v6.09h0v12.2H97.56V61h0v6.09h-6.1V61h0V48.78h12.2v-6.1h0V30.49h12.19v-6.1H97.56v6.1h0v6.1H79.27v6.09h6.1v12.2h-6.1V61h6.1v6.09h-6.1v12.2h0V97.56h0v6.1h6.1v6.1h-6.1v18.29h6.1V122h6.09v-6.1H85.37v-6.09H97.56V122h6.1V109.76ZM128.05,61H122v-6.1h6.1ZM122,67.07h-6.1V61H122Zm-12.19,18.3v-6.1h6.09v6.1ZM122,79.27h-6.1v-6.1H122Zm18.29,12.19h-6.09V79.27h0v-6.1h-6.1V61h6.1V73.17h6.09v6.1h0v6.1h6.1v6.09ZM146.34,61v6.09h-6.1V61Zm-30.49-18.3H122v6.1h-6.1Zm0,12.2V61h-6.09v-6.1ZM103.66,61h6.1V73.17h-6.1V61ZM85.37,73.17h6.09v6.1H85.37Zm6.09,30.49v-6.1H85.37V85.37H97.56v-6.1h6.1v6.1h-6.1v6.09h6.1v6.1h0v12.2h-6.1v-6.1Z"/><rect x="36.59" y="115.85" width="6.1" height="6.1"/><polygon points="73.17 121.95 79.27 121.95 79.27 115.85 73.17 115.85 67.07 115.85 67.07 121.95 73.17 121.95"/><rect x="60.98" y="121.95" width="6.1" height="6.1"/><polygon points="36.59 128.05 36.59 134.15 42.68 134.15 48.78 134.15 48.78 128.05 54.88 128.05 54.88 134.15 60.98 134.15 60.98 128.05 60.98 128.05 60.98 121.95 54.88 121.95 48.78 121.95 42.68 121.95 42.68 128.05 36.59 128.05"/><polygon points="24.39 134.15 24.39 140.24 24.39 146.34 30.49 146.34 30.49 152.44 36.59 152.44 36.59 146.34 30.49 146.34 30.49 140.24 36.59 140.24 36.59 134.15 30.49 134.15 24.39 134.15"/><rect x="60.98" y="134.15" width="6.1" height="6.1"/><rect x="152.44" y="134.15" width="6.1" height="6.1"/><polygon points="54.88 146.34 48.78 146.34 42.68 146.34 42.68 140.24 36.59 140.24 36.59 146.34 36.59 146.34 36.59 152.44 42.68 152.44 48.78 152.44 54.88 152.44 54.88 146.34 60.98 146.34 60.98 140.24 54.88 140.24 54.88 146.34"/><polygon points="73.17 140.24 67.07 140.24 67.07 146.34 60.98 146.34 60.98 152.44 67.07 152.44 67.07 146.34 73.17 146.34 73.17 152.44 67.07 152.44 67.07 158.54 60.98 158.54 60.98 164.63 67.07 164.63 73.17 164.63 73.17 170.73 73.17 176.83 73.17 176.83 73.17 182.93 79.27 182.93 79.27 176.83 79.27 176.83 79.27 170.73 79.27 164.63 79.27 164.63 79.27 158.54 79.27 152.44 79.27 146.34 73.17 146.34 73.17 140.24"/><polygon points="24.39 158.54 24.39 164.63 24.39 164.63 24.39 170.73 24.39 176.83 30.49 176.83 36.59 176.83 36.59 170.73 30.49 170.73 30.49 164.63 30.49 164.63 30.49 158.54 30.49 152.44 24.39 152.44 24.39 158.54"/><polygon points="79.27 152.44 79.27 158.54 85.37 158.54 91.46 158.54 91.46 152.44 85.37 152.44 79.27 152.44"/><polygon points="48.78 164.63 48.78 158.54 42.68 158.54 36.59 158.54 36.59 164.63 36.59 164.63 36.59 170.73 36.59 176.83 42.68 176.83 42.68 170.73 48.78 170.73 54.88 170.73 54.88 164.63 48.78 164.63"/><rect x="54.88" y="170.73" width="6.1" height="6.1"/><rect x="60.98" y="170.73" width="6.1" height="6.1"/><polygon points="146.34 182.93 152.44 182.93 152.44 176.83 152.44 176.83 152.44 170.73 146.34 170.73 146.34 176.83 140.24 176.83 140.24 182.93 146.34 182.93 146.34 182.93"/><polygon points="24.39 182.93 24.39 189.03 24.39 195.12 24.39 195.12 24.39 201.22 24.39 207.32 24.39 213.41 24.39 213.41 24.39 219.51 24.39 225.61 30.49 225.61 36.59 225.61 36.59 219.51 30.49 219.51 30.49 213.41 30.49 213.41 30.49 207.32 30.49 201.22 30.49 195.12 30.49 195.12 30.49 189.03 36.59 189.03 36.59 182.93 30.49 182.93 24.39 182.93"/><polygon points="48.78 182.93 42.68 182.93 36.59 182.93 36.59 189.03 42.68 189.03 48.78 189.03 54.88 189.03 60.98 189.03 60.98 182.93 54.88 182.93 48.78 182.93"/><polygon points="60.98 189.03 60.98 195.12 60.98 195.12 60.98 201.22 60.98 207.32 60.98 213.41 60.98 213.41 60.98 219.51 60.98 225.61 67.07 225.61 67.07 219.51 67.07 213.41 67.07 213.41 67.07 207.32 67.07 201.22 67.07 195.12 67.07 195.12 67.07 189.03 67.07 182.93 60.98 182.93 60.98 189.03"/><polygon points="79.27 189.03 79.27 195.12 85.37 195.12 85.37 189.03 85.37 182.93 79.27 182.93 79.27 189.03"/><rect x="182.93" y="182.93" width="6.1" height="6.1"/><rect x="103.66" y="201.22" width="6.1" height="6.1"/><polygon points="48.78 213.41 54.88 213.41 54.88 207.32 54.88 201.22 54.88 195.12 48.78 195.12 42.68 195.12 36.59 195.12 36.59 201.22 36.59 207.32 36.59 213.41 42.68 213.41 48.78 213.41"/><polygon points="79.27 213.41 79.27 213.41 79.27 219.51 79.27 225.61 85.37 225.61 85.37 219.51 85.37 213.41 85.37 213.41 85.37 207.32 79.27 207.32 79.27 213.41"/><polygon points="121.95 213.41 121.95 207.32 115.85 207.32 115.85 213.41 109.76 213.41 109.76 213.41 103.66 213.41 103.66 207.32 97.56 207.32 91.46 207.32 91.46 213.41 97.56 213.41 103.66 213.41 103.66 219.51 109.76 219.51 109.76 219.51 115.85 219.51 115.85 213.41 121.95 213.41"/><polygon points="48.78 219.51 42.68 219.51 36.59 219.51 36.59 225.61 42.68 225.61 48.78 225.61 54.88 225.61 60.98 225.61 60.98 219.51 54.88 219.51 48.78 219.51"/><rect x="73.17" y="219.51" width="6.1" height="6.1"/><rect x="97.56" y="219.51" width="6.1" height="6.1"/><polygon points="128.05 219.51 121.95 219.51 115.85 219.51 115.85 225.61 121.95 225.61 128.05 225.61 128.05 225.61 134.15 225.61 134.15 219.51 128.05 219.51 128.05 219.51"/></g></g></svg>