<svg xmlns="http://www.w3.org/2000/svg" viewBox="0 0 250 250"><defs><style>.cls-1{fill:#fff;}</style></defs><title>アセット 4</title><g id="レイヤー_2" data-name="レイヤー 2"><g id="レイヤー_1-2" data-name="レイヤー 1"><rect class="cls-1" width="250" height="250"/><path d="M212.12,30.3H166.67V45.45h0V60.61h0V75.76h0v7.57h53V75.76h0V60.61h0V45.45h0V30.3Zm0,15.15V60.61h0V75.76H174.24V60.61h0V45.45h0V37.88h37.88v7.57Z"/><polygon points="196.97 45.45 189.39 45.45 181.82 45.45 181.82 53.03 181.82 60.61 181.82 60.61 181.82 68.18 189.39 68.18 196.97 68.18 196.97 68.18 204.54 68.18 204.54 60.61 204.54 60.61 204.54 53.03 204.54 45.45 196.97 45.45 196.97 45.45"/><polygon points="60.61 68.18 60.61 68.18 68.18 68.18 68.18 60.61 68.18 60.61 68.18 53.03 68.18 45.45 60.61 45.45 60.61 45.45 53.03 45.45 45.45 45.45 45.45 53.03 45.45 60.61 45.45 60.61 45.45 68.18 53.03 68.18 60.61 68.18"/><path d="M45.45,83.33H83.33V75.76h0V60.61h0V45.45h0V30.3h-53V45.45h0V60.61h0V75.76h0v7.57H45.45ZM37.88,68.18V60.61h0V45.45h0V37.88H75.76v7.57h0V60.61h0V75.76H37.88Z"/><polygon points="45.45 143.94 45.45 136.36 37.88 136.36 30.3 136.36 30.3 143.94 37.88 143.94 45.45 143.94"/><polygon points="212.12 143.94 219.7 143.94 219.7 136.36 219.7 128.79 219.7 128.79 219.7 121.21 212.12 121.21 212.12 128.79 204.54 128.79 204.54 136.36 212.12 136.36 212.12 143.94"/><polygon points="75.76 166.67 68.18 166.67 60.61 166.67 60.61 166.67 53.03 166.67 45.45 166.67 45.45 166.67 37.88 166.67 30.3 166.67 30.3 174.24 30.3 174.24 30.3 181.82 37.88 181.82 37.88 174.24 45.45 174.24 45.45 174.24 53.03 174.24 60.61 174.24 60.61 174.24 68.18 174.24 75.76 174.24 75.76 181.82 83.33 181.82 83.33 174.24 83.33 174.24 83.33 166.67 75.76 166.67 75.76 166.67"/><rect x="166.67" y="166.67" width="7.58" height="7.58"/><rect x="128.79" y="174.24" width="7.58" height="7.58"/><polygon points="75.76 189.39 75.76 196.97 75.76 204.54 75.76 212.12 83.33 212.12 83.33 204.54 83.33 196.97 83.33 189.39 83.33 181.82 75.76 181.82 75.76 189.39"/><path d="M212.12,90.91v7.57h-7.57V90.91H197v7.57h-7.58v7.58H174.24V98.48h7.58V90.91h-7.58v7.57h-7.57v7.58h7.57v7.58h-7.57v15.15h-7.58V113.64h0V98.48h0V90.91h-30.3V75.76h7.57v7.57h7.58V75.76h0V68.18h-7.58V60.61h15.16V75.76h0v7.57h7.57V75.76h0V60.61h-7.57V53h-7.58V45.45h0V37.88h-7.58v7.57h-7.57V37.88h7.57V30.3H113.64v7.58H98.48V30.3H90.91v7.58h7.57v7.57H90.91V53h7.57V45.45h30.31V53H113.64v7.58h-7.58v7.57h7.58v7.58h-7.58V68.18H90.91v7.58h0v7.57h7.57V98.48H90.91V90.91H75.76v7.57H68.18v7.58H60.61v7.58H53v-7.58H45.45V98.48H53V90.91H45.45v7.57H37.88V90.91H30.3v7.57h0v15.16h0v7.57h7.58v-7.57h7.57v7.57H37.88v7.58h7.57v-7.58H53v7.58h7.58v-7.58h7.57v-7.57H83.33v7.57H75.76v7.58h7.57v7.57H53v7.58h0v7.58H30.3v7.57H90.91v15.15h15.15v7.58h7.58v-7.58h7.57v-7.57h-7.57v-7.58h0v-7.57h15.15v7.57h0v7.58h15.15v-7.58h7.58v15.15h-7.58v7.58h15.15v-7.58h0V159.09h22.73v15.15h0v7.58h7.57v-7.58H197v-7.57h7.58v-7.58h7.57v15.15h-7.57v7.58H219.7v-7.58h0V159.09h-7.58v-7.57h-7.57v7.57H197v7.58h-7.58v-7.58h0V143.94h15.16v-7.58H181.82v7.58h0v7.58H159.09v-7.58h15.15v-7.58h7.58v-7.57h0V113.64h7.57v7.57H197v-7.57h7.58v-7.58H197V98.48h7.58v7.58h7.57v7.58h7.58V98.48h0V90.91ZM83.33,151.52H68.18v-7.58H83.33Zm0-37.88v-7.58H75.76V98.48h7.57v7.58h7.58v7.58Zm22.73,45.45h0v7.58H98.48v-7.58h0v-7.57h7.58Zm22.73-53H106.06v7.58h15.15v7.57h-7.57v7.58h7.57v15.15h-7.57v-7.58h-7.58v7.58H90.91v-7.58h15.15v-7.57H90.91v-7.58h7.57v-7.57h0v-7.58h7.58V98.48h0V83.33H98.48V75.76h7.58v7.57h7.58V75.76h7.57V98.48h7.58Zm0-37.88H113.64V60.61h15.15Zm7.57,83.34h-7.57v-7.58h7.57Zm7.58-22.73v7.57H128.79v-7.57h7.57V113.64h-7.57v-7.58h7.57V98.48h7.58v15.16h7.58v15.15Zm7.58,22.73h-7.58v-7.58h7.58Zm7.57-7.58h-7.57v-7.58h7.57Z"/><polygon points="212.12 181.82 204.54 181.82 204.54 189.39 196.97 189.39 196.97 181.82 189.39 181.82 181.82 181.82 174.24 181.82 174.24 181.82 166.67 181.82 159.09 181.82 159.09 181.82 151.51 181.82 143.94 181.82 143.94 189.39 151.51 189.39 159.09 189.39 159.09 196.97 159.09 204.54 151.51 204.54 151.51 196.97 143.94 196.97 143.94 196.97 136.36 196.97 128.79 196.97 128.79 189.39 136.36 189.39 136.36 181.82 128.79 181.82 128.79 181.82 121.21 181.82 113.64 181.82 113.64 181.82 106.06 181.82 98.48 181.82 98.48 189.39 106.06 189.39 113.64 189.39 113.64 189.39 121.21 189.39 121.21 196.97 121.21 204.54 113.64 204.54 113.64 196.97 106.06 196.97 106.06 204.54 106.06 212.12 113.64 212.12 113.64 212.12 121.21 212.12 128.79 212.12 128.79 204.54 136.36 204.54 136.36 212.12 143.94 212.12 143.94 212.12 151.51 212.12 159.09 212.12 159.09 204.54 166.67 204.54 166.67 196.97 166.67 189.39 174.24 189.39 174.24 189.39 181.82 189.39 181.82 196.97 181.82 204.54 174.24 204.54 174.24 204.54 166.67 204.54 166.67 212.12 174.24 212.12 174.24 212.12 181.82 212.12 189.39 212.12 189.39 204.54 189.39 196.97 196.97 196.97 196.97 196.97 204.54 196.97 204.54 204.54 212.12 204.54 212.12 204.54 219.7 204.54 219.7 196.97 212.12 196.97 212.12 189.39 219.7 189.39 219.7 181.82 212.12 181.82 212.12 181.82"/><polygon points="60.61 204.54 60.61 204.54 68.18 204.54 68.18 196.97 68.18 189.39 68.18 181.82 60.61 181.82 60.61 181.82 53.03 181.82 45.45 181.82 45.45 189.39 45.45 196.97 45.45 204.54 53.03 204.54 60.61 204.54"/><rect x="90.91" y="196.97" width="7.58" height="7.58"/><polygon points="37.88 204.54 37.88 196.97 37.88 189.39 37.88 181.82 30.3 181.82 30.3 189.39 30.3 196.97 30.3 204.54 30.3 212.12 37.88 212.12 37.88 204.54"/><polygon points="75.76 212.12 68.18 212.12 60.61 212.12 60.61 212.12 53.03 212.12 45.45 212.12 45.45 212.12 37.88 212.12 30.3 212.12 30.3 219.7 37.88 219.7 45.45 219.7 45.45 219.7 53.03 219.7 60.61 219.7 60.61 219.7 68.18 219.7 75.76 219.7 75.76 219.7 83.33 219.7 83.33 212.12 75.76 212.12 75.76 212.12"/><polygon points="98.48 212.12 98.48 212.12 90.91 212.12 90.91 219.7 98.48 219.7 98.48 219.7 106.06 219.7 113.64 219.7 113.64 212.12 106.06 212.12 98.48 212.12"/><polygon points="128.79 212.12 128.79 219.7 136.36 219.7 143.94 219.7 143.94 212.12 136.36 212.12 128.79 212.12"/><rect x="151.52" y="212.12" width="7.58" height="7.58"/><rect x="166.67" y="212.12" width="7.58" height="7.58"/><rect x="189.39" y="212.12" width="7.58" height="7.58"/><rect x="212.12" y="212.12" width="7.58" height="7.58"/></g></g></svg>