<svg xmlns="http://www.w3.org/2000/svg" viewBox="0 0 49 56.65"><defs><style>.cls-1{fill:#cf0;}</style></defs><title>アセット 836</title><g id="レイヤー_2" data-name="レイヤー 2"><g id="メインメニュー"><path id="sub_ロック" class="cls-1" d="M45.13,22.37V20.63a20.63,20.63,0,0,0-41.26,0v1.74H0V56.65H49V22.37ZM27.41,38.63a2.85,2.85,0,0,0-1,2.6c.09,1.6.05,3.2,0,4.81a2.28,2.28,0,1,1-4.55.05c-.05-1,0-2,0-3h0c0-.51-.05-1,0-1.51a3.33,3.33,0,0,0-1.1-3.1,4.37,4.37,0,0,1,.36-6.27,4.49,4.49,0,0,1,6.22.15A4.4,4.4,0,0,1,27.41,38.63Zm10-16.26H11.61V20.63a12.87,12.87,0,0,1,4.69-9.94,12.32,12.32,0,0,1,1.52-1.08,12.53,12.53,0,0,1,1.67-.86,12.73,12.73,0,0,1,5-1,12.79,12.79,0,0,1,7.2,2.2,12.63,12.63,0,0,1,1.91,1.58,12.06,12.06,0,0,1,1.58,1.91,12.84,12.84,0,0,1,2.2,7.2Z"/></g></g></svg>