<svg xmlns="http://www.w3.org/2000/svg" viewBox="0 0 55.66 60.94"><defs><style>.cls-1{fill:#ededed;}</style></defs><title>アセット 470</title><g id="レイヤー_2" data-name="レイヤー 2"><g id="メインメニュー"><g id="sab_日付選択"><rect class="cls-1" x="9.8" width="3.87" height="13.95"/><rect class="cls-1" x="25.9" width="3.87" height="13.95"/><rect class="cls-1" x="41.99" width="3.87" height="13.95"/><path class="cls-1" d="M55.63,14.26A7.77,7.77,0,0,0,49.37,6.4c-.74-.15-.85,0-.85,0V17H39.33V6.38h0s-6.88,0-6.88,0V17H23.24V6.38H16.33V17H7.14V6.38H6.68a5.17,5.17,0,0,0-2.62.85A7.3,7.3,0,0,0,0,13.8Q0,33.5,0,53.18a7.71,7.71,0,0,0,5.61,7.41,8.93,8.93,0,0,1,.85.35H49.17a23.17,23.17,0,0,0,2.34-1,7.44,7.44,0,0,0,4.11-6.78Q55.7,33.71,55.63,14.26ZM50.17,50.78c0,3.34-1.93,5.24-5.25,5.24H10.63c-3.21,0-5.13-1.89-5.14-5.11,0-8.27,0-16.53,0-24.8,0-.95.27-1.25,1.25-1.25,7,0,14.06,0,21.1,0s14.07,0,21.1,0c.95,0,1.28.23,1.28,1.22C50.16,34.32,50.18,42.55,50.17,50.78Z"/></g></g></g></svg>