<svg xmlns="http://www.w3.org/2000/svg" viewBox="0 0 49.43 68.47"><defs><style>.cls-1{fill:#333;}</style></defs><title>アセット 949</title><g id="レイヤー_2" data-name="レイヤー 2"><g id="メインメニュー"><path id="sub_ロック解除_無効" class="cls-1" d="M45.53,33.89V20.81a20.82,20.82,0,0,0-41.63,0v6.6h7.81v-6.6a13,13,0,1,1,26,0V33.89H0V68.47H49.43V33.89Zm-18,16.16c-.42.35-.42,1.05-.44,1.56-.07,1.84,0,3.69,0,5.54a2.31,2.31,0,1,1-4.6,0c-.05-1.71,0-3.35,0-5.12a2.24,2.24,0,0,0-.84-2.13,4.36,4.36,0,0,1-1.06-5.08A4.71,4.71,0,0,1,24.84,42,4.57,4.57,0,0,1,29,45.08,4.75,4.75,0,0,1,27.52,50.05Z"/></g></g></svg>