<svg xmlns="http://www.w3.org/2000/svg" viewBox="0 0 67.99 63.64"><defs><style>.cls-1{fill:#cf0;}</style></defs><title>アセット 827</title><g id="レイヤー_2" data-name="レイヤー 2"><g id="_追加_赤枠新規_" data-name="※※※追加※※※（赤枠新規）"><g id="sub_放送波切り換え"><path class="cls-1" d="M63.3,26.88,54.66,33l-1.14.82,4.38,4.36.82-1.15h0l6.1-8.54Z"/><path class="cls-1" d="M67,24l-.5-.31h-.85c-.68.37-1.35.75-1.51,1.6a2,2,0,0,0,1.32,2.29,1.94,1.94,0,0,0,2.39-1.1A1.91,1.91,0,0,0,67,24Z"/><path class="cls-1" d="M43.79,12.55,39.14,17.2l3.13,3.13,7.78-7.78h.19v-.19l9.23-9.23L56.34,0,48.29,8.06h-6.8l4.93-4.93L43.3,0,35.24,8.06h-6.8l4.93-4.93L30.25,0,22.19,8.06H15.4l4.93-4.93L17.2,0,0,17.2l3.13,3.13,7.77-7.78h6.8L13.05,17.2l3.12,3.13,6.48-6.48v37.4H28.4V19.51l.82.82L37,12.55ZM28.4,14.89V12.55h2.35Z"/><path class="cls-1" d="M36.75,40.39c1.32,7.37,5.69,12.34,13,14.29,6.36,1.72,12,0,16.91-4.43L41.55,25.11C37.48,29.44,35.7,34.55,36.75,40.39ZM44.34,34a4.8,4.8,0,0,1-1.9,5.1,1.86,1.86,0,0,1-2.91-1A6.63,6.63,0,0,1,39.28,37a4.8,4.8,0,0,1,2-4A1.88,1.88,0,0,1,44.34,34Z"/><path class="cls-1" d="M52.81,58.44a23,23,0,0,1-10.1-3.24c-.51,3.55-1,5-1.48,8.44H53.91c-.29-1.89-.58-1.8-.88-3.69C53,59.48,52.89,59,52.81,58.44Z"/></g></g></g></svg>