<svg xmlns="http://www.w3.org/2000/svg" viewBox="0 0 61.24 61.37"><defs><style>.cls-1{fill:#ededed;}</style></defs><title>アセット 479</title><g id="レイヤー_2" data-name="レイヤー 2"><g id="メインメニュー"><g id="sab_予約内容編集"><path class="cls-1" d="M61.24,20.65a13,13,0,0,0-1.08.88Q43.44,38.25,26.71,55a4.75,4.75,0,0,1-2.24,1.17C16.33,57.92,8.16,59.63,0,61.37.62,58.24,1.21,55.11,1.86,52,2.92,46.87,4,41.75,5.13,36.65a4.55,4.55,0,0,1,1.15-2.12Q23,17.77,39.7,1.08c.33-.33.59-.72.89-1.08h.24a6.33,6.33,0,0,0,.61.83q9.53,9.52,19.06,19a5,5,0,0,0,.74.54ZM40.68,6.51,11.13,36.07l6.09,6.11C27,32.39,36.94,22.46,46.78,12.62ZM25,50.23c9.93-9.94,19.88-19.89,29.71-29.74l-5.94-6-29.7,29.7ZM9.39,38.32a1,1,0,0,0-.14.27c-.69,3-1.39,6.06-2,9.11a1.68,1.68,0,0,0,.51,1.21c1.49,1.56,3,3.1,4.58,4.57a2.1,2.1,0,0,0,1.55.45c1.8-.3,3.59-.74,5.38-1.13,1.25-.28,2.5-.58,3.8-.89Z"/></g></g></g></svg>