<svg xmlns="http://www.w3.org/2000/svg" viewBox="0 0 42.91 26.5"><defs><style>.cls-1{fill:#fff;}.cls-2{fill:#ededed;}</style></defs><title>アセット 494</title><g id="レイヤー_2" data-name="レイヤー 2"><g id="画面タイトル"><g id="予約一覧"><path class="cls-1" d="M5.94,15.63H20.42V13H5.94Z"/><path class="cls-1" d="M6,6.71V9.43H20.4V6.71Z"/><path class="cls-1" d="M1.63,6.21a1.62,1.62,0,1,0,0,3.24,1.62,1.62,0,0,0,0-3.24Z"/><path class="cls-1" d="M1.6,0A1.63,1.63,0,0,0,0,1.6,1.62,1.62,0,0,0,1.63,3.22,1.61,1.61,0,0,0,1.6,0Z"/><path class="cls-1" d="M6,3.2H20.42V.51H6Z"/><path class="cls-1" d="M1.6,12.44a1.62,1.62,0,0,0,0,3.23,1.62,1.62,0,1,0,0-3.23Z"/><path class="cls-1" d="M33,6.62a9.94,9.94,0,1,0,9.94,10.92v-2A10,10,0,0,0,33,6.62Zm0,17.69a7.75,7.75,0,1,1,7.79-7.75A7.77,7.77,0,0,1,33,24.31Z"/><path class="cls-1" d="M31.62,17.9V11h2.21V15.7h4.71v2.2Z"/><path class="cls-2" d="M5.94,15.63H20.42V13H5.94Z"/><path class="cls-2" d="M6,6.71V9.43H20.4V6.71Z"/><path class="cls-2" d="M1.63,6.21a1.62,1.62,0,1,0,0,3.24,1.62,1.62,0,0,0,0-3.24Z"/><path class="cls-2" d="M1.6,0A1.63,1.63,0,0,0,0,1.6,1.62,1.62,0,0,0,1.63,3.22,1.61,1.61,0,0,0,1.6,0Z"/><path class="cls-2" d="M6,3.2H20.42V.51H6Z"/><path class="cls-2" d="M1.6,12.44a1.62,1.62,0,0,0,0,3.23,1.62,1.62,0,1,0,0-3.23Z"/><path class="cls-2" d="M33,6.62a9.94,9.94,0,1,0,9.94,10.92v-2A10,10,0,0,0,33,6.62Zm0,17.69a7.75,7.75,0,1,1,7.79-7.75A7.77,7.77,0,0,1,33,24.31Z"/><path class="cls-2" d="M31.62,17.9V11h2.21V15.7h4.71v2.2Z"/></g></g></g></svg>