<svg xmlns="http://www.w3.org/2000/svg" viewBox="0 0 36 36"><defs><style>.cls-1{fill:#ededed;}</style></defs><title>アセット 497</title><g id="レイヤー_2" data-name="レイヤー 2"><g id="画面タイトル"><g id="設定"><path class="cls-1" d="M18,14A4.05,4.05,0,1,0,22.05,18,4.11,4.11,0,0,0,18,14Z"/><path class="cls-1" d="M36,20.81V15.19H29.19a11.59,11.59,0,0,0-1.31-3.09l4.84-4.84-4-4L23.92,8.1a11.4,11.4,0,0,0-3.11-1.31V0H15.19V6.79a11.76,11.76,0,0,0-3.12,1.3L7.26,3.28l-4,4,4.79,4.79a11.31,11.31,0,0,0-1.32,3.14H0v5.62H6.8a11.56,11.56,0,0,0,1.3,3.11L3.28,28.74l4,4,4.8-4.8a11.4,11.4,0,0,0,3.13,1.31V36h5.62V29.2a11.8,11.8,0,0,0,3.1-1.31l4.83,4.83,4-4-4.81-4.81a11.21,11.21,0,0,0,1.33-3.12ZM18,27A9,9,0,0,1,18,9,9.17,9.17,0,0,1,27,18.09,9.16,9.16,0,0,1,18,27Z"/></g></g></g></svg>