<svg xmlns="http://www.w3.org/2000/svg" viewBox="0 0 41.48 28"><defs><style>.cls-1{fill:#ededed;}</style></defs><title>アセット 493</title><g id="レイヤー_2" data-name="レイヤー 2"><g id="画面タイトル"><g id="録画再生"><path class="cls-1" d="M6,15.81H20.66v-2.7H6Z"/><path class="cls-1" d="M6,6.79V9.54H20.64V6.79Z"/><path class="cls-1" d="M1.65,6.28a1.64,1.64,0,1,0,0,3.28,1.64,1.64,0,0,0,0-3.28Z"/><path class="cls-1" d="M1.62,0A1.65,1.65,0,0,0,0,1.62,1.63,1.63,0,0,0,1.64,3.26,1.63,1.63,0,0,0,1.62,0Z"/><path class="cls-1" d="M6,3.23H20.66V.52H6Z"/><path class="cls-1" d="M1.62,12.58A1.65,1.65,0,0,0,0,14.2a1.62,1.62,0,1,0,1.62-1.62Z"/><path class="cls-1" d="M25.41,28l16.07-9.16L25.41,9.69Z"/></g></g></g></svg>